<?xml version="1.0"?><svg width="640" height="480" xmlns="http://www.w3.org/2000/svg">
 <title>wonders of the world</title>
 <metadata id="metadata496">image/svg+xml</metadata>
 <g>
  <title>Layer 1</title>
  <g transform="rotate(-91.5819, 190.447, 65.7363)" id="g3">
   <polygon fill="#0071bc" id="polygon5" points="219.197998046875,139.0980224609375 159.77200317382812,139.5460205078125 160.22198486328125,133.49200439453125 215.6090087890625,133.0419921875 218.301025390625,133.49200439453125 219.197998046875,139.0980224609375 "/>
   <path fill="#0071bc" id="path7" d="m164.481995,131.697998l50.677979,-0.672974l-1.717957,-24.518005c0,0 -0.747009,-0.653992 -3.663025,1.811951c-2.916016,2.466003 -0.335999,-1.793945 -0.335999,-1.793945c0,0 -1.158997,-5.177002 -1.309021,-5.550049c-0.149963,-0.372986 -1.046997,0.299011 -1.046997,0.673035c0,0.373962 0.07605,-1.942993 -0.147949,-2.16803c-0.225037,-0.223999 -0.972046,-1.867981 -1.943054,0.598022c-0.972961,2.46698 -2.84198,24.442993 -2.84198,24.442993c0,0 0.075989,4.560974 -0.299011,4.859009c-0.372986,0.299011 -4.484009,-3.513977 -4.484009,-4.187012c0,-0.672974 4.933044,-23.172974 4.63501,-23.994019c-0.299011,-0.82196 -5.904968,4.559998 -7.474976,4.335022c-1.570007,-0.224976 0.372986,17.491028 0.072998,17.640991c-0.297974,0.148987 -3.138977,2.765991 -3.885986,3.140015c-0.747009,0.374023 1.494995,-16.444031 1.494995,-17.715027c0,-1.270996 -4.859009,6.203003 -5.232025,8.520996c-0.373993,2.31604 -0.971985,0.616028 -1.645996,-0.299988c-0.345978,-0.469971 1.270996,-6.576965 1.122009,-6.802002c-0.149994,-0.224976 -2.69101,0.897034 -2.98999,1.346008c-0.300018,0.447998 -2.69101,12.856018 -4.559998,14.277039c-1.869019,1.418945 -0.300018,-7.774048 -0.897003,-8.074036c-0.598999,-0.299011 -3.364014,2.393005 -3.364014,2.393005c0,0 0.524017,9.194031 -0.072998,9.867004c-0.597992,0.671997 -1.570007,0.447998 -1.944,0.148987c-0.372986,-0.299011 1.944,-5.232971 1.794006,-5.830017c-0.149017,-0.599976 -0.223999,-1.346985 -0.597992,-0.896973c-0.373016,0.447998 0.298981,-1.794006 -0.074005,-2.018982c-0.373993,-0.225037 -1.196014,0.224976 -1.196014,0.224976c0,0 -2.765991,6.875977 -3.363983,7.475037c-0.598022,0.598999 -4.261017,1.047974 -4.709015,2.766968z"/>
   <path fill="#0071bc" id="path9" d="m159.549011,-58.536987c0.148987,-0.598999 0.597992,-1.570007 0.971985,-1.64502c0.373016,-0.074982 -0.299011,-2.46698 -0.299011,-2.46698c0,0 6.203003,-0.896027 6.728027,0.896973c0.52298,1.792999 -0.075012,1.792999 -0.075012,1.943024c0,0.14798 3.065002,3.661987 2.018005,11.958984c-1.046021,8.298004 3.065002,21.528015 2.317993,26.610016c-0.747986,5.082977 -1.195984,5.829987 -1.944,8.67099c-0.747009,2.841003 -2.018005,-11.360992 -2.915009,-12.257996c-0.895996,-0.897003 -1.345978,-4.187012 -0.448975,-4.410004c0.896973,-0.225006 1.645996,-2.243011 2.093994,-2.617004c0.449005,-0.372986 -1.64502,-10.613983 -1.795013,-11.061981c0,0 -1.119995,2.765991 -2.240997,1.121979c-1.122009,-1.645996 0.597992,-4.337006 0.446991,-4.934998c-0.14798,-0.598999 -0.223999,-4.410004 0.076019,-4.78299c0.298981,-0.373993 0.372986,-2.393005 0.14798,-2.46701c-0.224976,-0.075989 -1.643982,0.373016 -2.391998,0.447998c-0.746979,0.075012 -1.569977,-2.018005 -0.971985,-2.018005c0.597992,0 -0.673004,-1.794983 -0.747009,-2.242981c-0.074005,-0.447998 -0.971985,-0.744995 -0.971985,-0.744995z"/>
   <path fill="#0071bc" id="path11" d="m163.209991,-18.097992c0.45401,0.044006 0.674011,8.221985 0.674011,8.221985c0,0 0.747009,3.58902 1.195984,4.261017c0.448029,0.672974 -0.597992,2.093994 -2.018982,2.242004c-1.42099,0.149963 -2.093018,-0.074036 -2.093018,-0.074036c-0.148987,-0.073975 -0.447998,3.962036 -0.521973,4.187012c-0.076019,0.225037 -2.916016,-1.942993 -2.84201,-4.783997c0.074005,-2.841003 3.290009,-14.277985 5.605988,-14.053986z"/>
   <path fill="#0071bc" id="path13" d="m208.322021,31.403992c-0.231995,-0.22998 6.502991,-9.697998 6.502991,-9.697998l1.344971,0.335999l0.225037,-2.130005l13.117981,5.494019l-1.45697,1.177979l0.895996,1.065002l-2.019043,2.689026c0,0 2.916016,2.859985 2.63501,4.484985c-0.278992,1.625977 -8.575989,10.146973 -9.362,10.314026c-0.78302,0.169006 -5.046021,8.130005 -5.046021,8.130005l-3.194946,-0.448059c0,0 -1.682007,-10.202942 -3.026001,-11.380981c-1.346008,-1.177979 -1.121033,-2.130005 -0.841003,-3.307983c0.279968,-1.177979 0.390991,-6.557007 0.223999,-6.726013z"/>
   <path fill="#0071bc" id="path15" d="m196.025024,8.437988c-0.298035,0.299011 -12.857025,29.75 -13.305023,31.095032c-0.447998,1.346985 -3.140015,12.856995 -7.475006,19.883972c-4.337006,7.026001 -5.083984,10.764038 -5.231995,13.304993c-0.149994,2.541992 0.895996,6.129028 0.747009,7.624023c-0.149017,1.494995 -4.335999,6.578003 -4.484009,9.419006c-0.149994,2.841003 0.447998,2.989014 0.447998,2.989014c0,0 5.381012,-3.139038 7.475006,-4.634033c2.092987,-1.494995 11.511993,-16.893982 12.259003,-23.770996c0.747986,-6.875977 4.036011,-16.44397 4.484985,-17.491028c0.447998,-1.045959 4.932983,-18.985962 4.783997,-20.779968c-0.149963,-1.79303 0.598022,-15.846008 0.598022,-15.846008l-0.299988,-1.794006z"/>
   <path fill="#0071bc" id="path17" d="m166.566986,94.731995c0,0 21.03302,-14.120972 23.846039,-22.800964l1.638,-2.249023c0.295959,-0.598022 -4.875031,18.10498 -7.40802,20.953979c-2.531006,2.850037 -3.720001,4.945007 -4.162994,6.742004c-0.442017,1.794983 -3.555023,10.027039 -4.740997,13.020996c-1.187012,2.994995 -2.222015,6.286987 -2.516022,8.080994c-0.291992,1.796021 -8.200989,6.455994 -9.251984,5.114014c-1.050995,-1.34198 -0.606995,-2.987976 -0.606995,-2.987976c0,0 -2.245026,-0.890015 -0.160004,-3.437988c2.083984,-2.548035 -0.091003,-2.831055 -0.067017,-3.465027c0.036011,-0.960999 -0.139984,-13.875977 3.429993,-18.971008z"/>
   <path fill="#0071bc" id="path19" d="m197.781982,63.526978c0,0 -0.447998,36.217041 -1.346008,38.347046c-0.896973,2.130981 -9.530975,3.250977 -13.117981,6.950989c-3.587982,3.700012 -4.820984,6.054993 -6.839996,7.623962c-2.018005,1.570007 -2.914001,3.588013 -2.69101,3.028015c0.225006,-0.560974 7.737,-19.958008 13.007019,-26.797974c5.27002,-6.840027 4.036987,-13.455017 5.156982,-15.921997c1.122009,-2.466003 4.260986,-11.996033 5.830994,-13.230042z"/>
   <path fill="#0071bc" id="path21" d="m200.247986,43.232971c0,0.335999 -0.559998,49.334045 -0.559998,50.230042c0,0.896973 13.902039,-7.398987 15.023987,-8.968994c1.121033,-1.570007 -5.718994,-32.179993 -6.390991,-36.777039c-0.672974,-4.596985 -2.354004,-13.565002 -3.027954,-14.350952c-0.673035,-0.785034 -1.008057,6.390991 -2.242004,6.72699c-1.234009,0.336975 -2.80304,3.139954 -2.80304,3.139954z"/>
   <path fill="#0071bc" id="path23" d="m197.445984,8.138c0,0 8.184998,7.849976 9.754028,17.491028c1.56897,9.642944 0.093994,3.344971 -0.112,3.700989c-0.356018,0.61499 -1.569031,-3.700989 -3.363037,-2.243042c-1.793945,1.457031 -2.578003,1.682007 -2.578003,2.131042c0,0.447998 -0.224976,-9.756042 -0.224976,-9.756042l-3.476013,-11.323975z"/>
   <path fill="#0071bc" id="path25" d="m161.45401,2.419983c0,0 8.186005,-3.700012 9.082001,-4.708984c0.895996,-1.008972 -7.624023,9.979004 -8.857025,9.867004c-1.233978,-0.112 -2.353973,-0.448975 -2.017975,-0.896973c0.335999,-0.449036 0.447998,-2.467041 0.78299,-2.579041c0.337006,-0.112 1.01001,-1.682007 1.01001,-1.682007z"/>
   <path fill="#0071bc" id="path27" d="m191.61499,5.895996c-0.112,0.335999 -9.529999,10.539978 -13.342987,13.007019c-3.812012,2.466003 -8.520996,8.855957 -9.753998,11.322998c-1.234009,2.46698 -4.93399,8.297974 -5.494995,9.979004c-0.559998,1.682007 -0.895996,3.588013 -0.671997,5.044983c0.224976,1.458008 0.812988,2.528015 1.233002,2.916016c0.485992,0.447998 2.315979,0.747009 2.877991,0.52301c0.561005,-0.225037 1.494995,-0.748047 1.494995,-0.748047c0,0 3.699005,-19.509949 4.708984,-19.732971c1.008026,-0.225037 0.897003,3.252014 -0.336975,5.830994c-1.232025,2.578003 -1.009003,3.026001 -1.119995,3.476013c-0.11203,0.447998 0.222992,0.895996 0.222992,0.895996c0,0 14.688995,-22.312012 15.472992,-24.218018c0.786011,-1.904968 4.709991,-8.296997 4.709991,-8.296997z"/>
   <path fill="#0071bc" id="path29" d="m184.888,27.086975c-0.334991,0.337036 -19.958008,30.27301 -20.182007,33.524048c-0.223999,3.251953 0.671997,3.47699 1.233002,3.924988c0.561005,0.44696 2.46701,0 2.803009,-0.225037c0.337006,-0.223999 1.682007,-4.03595 1.682007,-4.03595l14.463989,-33.188049z"/>
   <path fill="#0071bc" id="path31" d="m170.200012,16.435974c-0.449005,1.009033 -6.615021,5.157043 -6.279022,6.055054c0.337006,0.896973 0.562012,1.793945 1.009003,1.793945c0.447998,0 0.673004,0.111023 0.785004,0.561035c0.112,0.447998 0,0.560974 0.225006,1.231995c0.225006,0.674011 0.897003,2.242981 0.897003,2.242981l3.363007,-11.88501z"/>
   <path fill="#0071bc" id="path33" d="m194.60498,-11.558014c0.262024,-0.036987 1.942993,0.038025 1.569031,-0.746979c-0.322998,-0.679016 -0.924988,-2.981018 -0.765991,-4.170013l11.529968,-0.427002c0,0 -8.231995,-1.626007 -11.039001,-2.152985c-0.002991,-0.479004 -0.039978,-0.964996 -0.099976,-1.404999l10.315002,-4.141998c0,0 -8.858032,1.457977 -11.135986,1.798981c-0.423035,-0.798981 -0.861023,-1.462006 -0.861023,-1.462006c-0.108032,-0.098999 -0.216003,-0.194 -0.325012,-0.286987l7.538025,-7.897003c0,0 -7.705017,5.358002 -9.502014,6.563995c-0.992981,-0.519989 -1.984985,-0.820984 -2.947998,-0.961975l0.266968,-10.461029c0,0.189026 -2.191986,8.025024 -2.868958,10.438019c-1.366028,0.164001 -2.600006,0.576996 -3.594025,1.018982l-7.290985,-7.494995l5.088989,8.71402c-0.196991,0.136993 -0.304993,0.220001 -0.304993,0.220001c-0.628998,0.446991 -1.169006,0.906982 -1.634003,1.372986l-8.756012,-0.140991l0.14801,1.195984l6.786011,1.46701c-0.25,0.52301 -0.428009,1.040985 -0.546997,1.545013l-2.875,0.35199l0.023987,0.079987c-0.687988,-1.118988 -1.294006,-1.799988 -1.294006,-1.799988c0,0 0.522003,2.915985 0.072998,5.906006c-0.447998,2.988983 -8.145996,12.108978 -8.145996,12.108978c0,0 -0.373993,0.822021 2.317017,0.52301c2.690002,-0.299988 7.399994,-3.364014 8.744995,-8.520996c0.64798,-2.488007 -0.024994,-4.904999 -0.895996,-6.743011l1.85199,0.295013c0.110016,2.190002 1.062012,3.756989 1.062012,3.756989c0,-0.148987 2.46698,-2.915985 3.175995,-2.729004c0.709991,0.188019 4.337006,-1.644989 4.52298,-1.457001c0.187012,0.187012 1.719025,1.420013 1.719025,1.420013c0,0 1.494995,0.709991 1.494995,0.859009c0,0.148987 0.074982,3.737976 -0.112,3.773987c-0.188019,0.037994 -0.747009,0.187988 -0.747009,0.187988c0,0 -0.261993,1.867004 -0.52301,1.79303c-0.261993,-0.075012 -0.335999,0.447998 -0.485992,0.597992c-0.148987,0.149994 1.309021,1.233978 1.309021,1.233978c0,0 0.484985,1.493011 0,1.531036c-0.487,0.037964 -0.785004,2.018982 -0.449005,2.393005c0.337006,0.372986 0.972992,0.372986 1.15799,0.335999c0.187988,-0.037048 0.710022,0.411987 2.242981,-0.262024c1.532043,-0.672974 3.887024,-7.475006 3.887024,-7.475006c0,0 0.11499,-0.708984 0.375977,-0.747009zm1.720032,13.454987c0.036987,-0.112 -1.309021,-5.156982 -1.121033,-5.269958c0.187012,-0.112 0.671997,-0.447998 1.009033,-1.233032c0.335999,-0.784973 -0.710022,-2.504974 -0.710022,-2.578979c0,-0.074005 -0.82196,-3.10199 -0.82196,-3.10199c0,0.186981 -3.215027,7.25 -3.215027,7.25c0,0 0.148987,3.437988 0.224976,3.774963c0.07605,0.337036 1.346008,0.112 1.346008,0.261047c0,0.149963 0.148987,2.690979 0.223999,2.690979c0.075012,0 0.411011,0.411011 0.859009,0.038025c0.448975,-0.374023 2.541992,-0.225037 2.541992,-0.225037c0,0 -0.373962,-1.494019 -0.336975,-1.606018zm-32.404022,12.856018c-1.457001,0.785034 -1.231995,0.897034 -1.009003,1.234009c0.223999,0.335999 0.447998,1.007996 0.447998,1.007996c0,0 -0.560974,-0.559998 -0.895996,1.122009c-0.336975,1.682007 -0.448975,2.130005 -0.112,2.242004c0.337006,0.112 7.288025,-4.036011 8.408997,-6.840027c1.121002,-2.802979 5.157013,-13.902954 5.157013,-13.902954c-0.112,0.449951 -10.540009,14.352966 -11.997009,15.136963zm7.960999,-13.341003l3.812012,-9.306976c-0.112,0.448975 -5.830994,7.176971 -6.503998,10.540009c-0.671997,3.362976 -1.345001,4.036011 -1.794006,4.820984c-0.449005,0.783997 4.485992,-6.054016 4.485992,-6.054016zm14.576019,1.345032c-0.447998,-0.112 -1.346008,-0.89801 -2.354004,-1.794006c-1.01001,-0.897034 -3.813019,-4.820984 -3.813019,-4.820984c-0.78299,-2.019043 -3.586975,-3.925018 -2.913971,-3.028015c0.671997,0.896973 -0.561005,11.885986 -0.785004,12.55896c-0.225006,0.671997 -4.821014,13.902039 -4.485016,13.454041c0.337006,-0.447998 1.347015,-1.346008 2.804016,-2.243042c1.457001,-0.895996 0.785004,-2.353943 1.009003,-4.482971c0.224976,-2.132019 0.672974,-1.794983 1.457977,-3.588989c0.783997,-1.794006 2.57901,-1.906006 3.924011,-2.354004c1.346008,-0.447998 4.260986,-1.121033 4.709991,-1.233032c0.446014,-0.112976 0.893005,-2.355957 0.446014,-2.467957z"/>
   <path fill="#0071bc" id="path35" d="m158.649994,-63.731995c0,0 5.326019,-2.522003 9.278992,-0.084015c0,0 2.522003,0.58902 4.345001,-2.242981c0,0 -0.280975,-1.541016 -4.428986,-2.242004c-4.148987,-0.700012 -7.457001,-0.028015 -7.457001,-0.028015c0,0 -3.587006,0.701019 -4.737,2.046997c-1.14801,1.345001 2.998993,2.550018 2.998993,2.550018z"/>
   <path fill="#0071bc" id="path37" d="m156.688995,-67.963989c0,0 6.054993,-3.925018 14.40799,-0.279999c0,0 0.11203,-2.327026 0.64502,-2.52301c0.53299,-0.196014 -7.597015,-3.335999 -15.277008,-0.225006c0,-0.001007 1.093994,1.373993 0.223999,3.028015z"/>
   <path fill="#0071bc" id="path39" d="m161.333008,-75.187012c0.001007,0.003998 0.600983,0.311005 0.755005,0.403015c1.261993,0.93399 5.069,-0.393005 5.069,-0.393005c0,0 5.181,-2.860992 4.406982,-9.588989c0,0 0.061005,2.042999 -2.195984,3.911987c-0.212006,-0.966003 -0.499023,-1.764984 -1.061005,-2.889008c-0.268005,-0.535004 -0.501007,-0.977997 -0.701019,-1.379974c0.056,-0.065002 0.113007,-0.127014 0.170013,-0.184021c1.003998,-1.005981 5.950012,-5.259003 1.119995,-16.73999c0,0 0.696014,8.118988 -1.044006,9.510986c-1.73999,1.391998 -9.394989,4.640015 -9.162994,11.134003c0.233002,6.494995 1.23999,5.282013 2.652008,6.223999"/>
   <rect fill="#0071bc" id="rect41" height="11.436" width="68.279999" y="143.715995" x="154.289"/>
   <rect fill="#0071bc" id="rect43" height="12.108" width="79.042999" y="158.179015" x="150.927"/>
   <path fill="#0071bc" id="path45" d="m155.971985,174.997009l0,58.523987l67.270996,0l0,-58.523987l-67.270996,0zm26.142029,20.852966l-8.926025,0l0,-16.480957l8.926025,0l0,16.480957zm12.967957,0l-8.927979,0l0,-16.480957l8.927979,0l0,16.480957zm14.028015,0l-8.927979,0l0,-16.480957l8.927979,0l0,16.480957z"/>
  </g>
  <g id="g47">
   <path fill="#0071bc" id="path49" d="m403.691711,390.818085c0,0 1.812439,5.912384 0.679688,8.515686c-1.132751,2.605255 94.278595,1.421417 94.278595,1.421417c0,0 -0.452179,-6.62796 0.454987,-8.283081c0.906189,-1.654022 0.225586,-1.180847 0.225586,-1.180847l-95.638855,-0.473175z"/>
   <path fill="#0071bc" id="path51" d="m414.115936,380.875031c0,0 17.675751,-50.64566 17.675751,-52.299683c0,-1.656006 2.268341,-1.423401 2.268341,-1.423401l-12.011963,53.960663l-7.932129,-0.237579z"/>
   <polygon fill="#0071bc" id="polygon53" points="428.61900627250725,323.6062943140496 432.4732583503428,321.23959071621357 473.0411177666756,321.9473000382641 476.6649922169163,323.36877025085414 477.1190401350177,321.23959071621357 473.26672819600935,319.81814751955426 433.152888981509,319.344017934809 428.16687077696406,320.5298822152872 428.61900627250725,323.6062943140496 "/>
   <path fill="#0071bc" id="path55" d="m434.738739,316.740723l4.985077,0.7117l10.200531,-133.23877l-2.041809,1.419418c0,0 -3.852356,51.355423 -3.852356,53.485565c0.000977,2.12822 -8.837372,76.912369 -9.291443,77.622086z"/>
   <path fill="#0071bc" id="path57" d="m452.872375,165.871246l3.397308,0.236572c0,0 -0.677765,-17.513458 -0.905273,-19.169449c-0.225586,-1.655029 -1.133698,-0.947281 -1.133698,-0.947281l-1.358337,19.880157z"/>
   <path fill="#0071bc" id="path59" d="m448.339447,172.380981c-0.497864,0.481094 4.985077,-10.650787 12.011963,-1.658981l-0.059021,2.250412c-0.000946,-0.000977 -5.494354,-6.864594 -11.952942,-0.591431z"/>
   <path fill="#0071bc" id="path61" d="m446.468964,175.75267l0.112305,3.196716l2.776672,-2.486008l9.914001,0l0.34079,5.680756c0,0 1.868591,-3.077454 2.321686,-3.432297c0.453094,-0.354858 0.511169,-2.899521 0.511169,-2.899521l-2.210327,-2.247482l-11.388458,0.118301l-2.377838,2.069534z"/>
   <path fill="#0071bc" id="path63" d="m453.55011,184.213654l1.812408,-0.474152c0,0 -1.359314,123.537262 3.3992,133.001221l-12.236603,0c0,0 10.651733,-130.161316 7.024994,-132.527069z"/>
   <path fill="#0071bc" id="path65" d="m431.114899,381.113586l2.946106,0.235596c0,0 9.063934,-42.598175 8.837402,-42.125c-0.225586,0.474121 -2.266479,-0.234619 -2.266479,-0.234619c0,0 -8.837372,41.651886 -9.517029,42.124023z"/>
   <path fill="#0071bc" id="path67" d="m461.256653,339.934845c0.67868,0 2.265503,0.474152 2.265503,0.474152c0,0 12.919128,37.156006 13.597839,39.521729c0.680603,2.367798 0.680603,1.657013 0.680603,1.657013l-6.570923,0.236633l-9.973022,-41.889526z"/>
   <path fill="#0071bc" id="path69" d="m473.268646,328.101227c0,0.710693 15.863312,53.01236 15.863312,53.01236l-3.3992,0.710785c0,0 -16.544922,-53.248047 -17.225525,-53.248047c-0.67868,-0.000977 4.761414,-0.475098 4.761414,-0.475098z"/>
   <path fill="#0071bc" id="path71" d="m463.070007,316.740723l6.798431,0c0,0 -10.651672,-126.847321 -10.651672,-127.795609c-0.000977,-0.94429 3.400146,127.088852 3.853241,127.795609z"/>
   <path fill="#0071bc" id="path73" d="m430.5466,324.316071c0,0 0.906189,1.062561 0.79483,1.655975c-0.114227,0.592438 42.264191,0.7117 42.264191,0.7117c0,0 0.454041,-1.304138 0.793854,-1.541687c0.339813,-0.237579 -43.852875,-0.825989 -43.852875,-0.825989z"/>
   <path fill="#0071bc" id="path75" d="m404.258087,381.705078c0.339844,0 94.958313,0.709717 94.958313,0.709717c0,0 -0.907227,1.53775 -0.907227,2.485016c0,0.947296 -91.332458,-0.235565 -91.672302,0.473175c-0.338867,0.709717 -2.378784,-3.667908 -2.378784,-3.667908z"/>
   <path fill="#0071bc" id="path77" d="m403.351898,401.704498c-0.113251,0.352875 -24.931091,37.982971 -24.931091,37.982971c0,0 2.833771,2.720612 3.173615,2.602417c0.339813,-0.118347 16.997986,-28.163269 17.790924,-28.280609c0.791962,-0.116272 5.778015,-9.938995 5.438171,-10.53244c-0.339813,-0.589417 -1.471619,-1.772339 -1.471619,-1.772339z"/>
   <path fill="#0071bc" id="path79" d="m407.316559,464.890594c0,-0.474182 6.231079,-20.943726 17.336853,-29.107513c11.10672,-8.164795 20.05835,-9.586212 21.07782,-9.704498c1.019501,-0.118317 10.537506,-0.118317 14.843842,0.827972c4.306396,0.945313 18.019409,9.113068 19.037933,10.532562c1.020447,1.421417 7.140167,10.413177 8.611816,12.661591c1.472595,2.248505 4.192139,11.003693 4.871796,15.737183c0.681549,4.733459 1.021362,6.979919 1.021362,6.979919c0,0 -1.927582,-17.392212 -0.454041,-18.222168c1.472595,-0.828003 3.511536,-1.654999 3.511536,-1.654999c0,0 -7.817932,-15.502563 -21.754608,-26.862061c-13.940521,-11.360535 -59.605774,-14.081146 -69.010529,38.693726l0.906219,0.118286z"/>
   <path fill="#0071bc" id="path81" d="m500.689911,404.069244c0,0 23.344208,36.681854 23.568878,37.392578c0.227539,0.708679 -5.212524,3.429291 -5.212524,3.429291l-19.602386,-40.466003l1.246033,-0.355865z"/>
   <path fill="#0071bc" id="path83" d="m404.853027,414.659424c-0.426453,0.62323 -2.8909,4.968994 -2.8909,4.968994l-2.378754,-3.902405l5.269653,-1.066589z"/>
   <path fill="#0071bc" id="path85" d="m392.444153,427.70575c0.25415,-0.087463 4.16452,0.087494 4.16452,0.087494l2.719543,-4.878601l-6.884064,4.791107z"/>
   <path fill="#0071bc" id="path87" d="m390.829712,430.012848l4.164551,0.353821l-3.145081,4.52774l-1.18988,-4.614197c0,0.000977 0.255127,-0.446259 0.17041,-0.267365z"/>
   <polygon fill="#0071bc" id="polygon89" points="407.57260200525343,426.9065684222369 410.54536586508766,422.4673647124837 404.2580965491434,421.8481055477241 407.57260200525343,426.9065684222369 "/>
   <polygon fill="#0071bc" id="polygon91" points="405.9572424177313,419.8064035968673 412.07505446525465,420.16123083139973 414.4576558101253,415.63552211136994 405.9572424177313,419.8064035968673 "/>
   <polygon fill="#0071bc" id="polygon93" points="407.3165591126017,414.03915076307385 403.6631668359187,418.83026398683796 412.67095424789295,414.7498318375074 407.3165591126017,414.03915076307385 "/>
   <polygon fill="#0071bc" id="polygon95" points="405.5317422566586,431.256349401192 402.4732796932003,435.8705623103742 394.82386662295175,436.0474626249561 405.5317422566586,431.256349401192 "/>
   <polygon fill="#0071bc" id="polygon97" points="401.1120782920407,438.17761473310384 397.88421389269934,442.8812503730842 394.31460789708217,437.9987152396461 401.1120782920407,438.17761473310384 "/>
   <polygon fill="#0071bc" id="polygon99" points="392.1890195142769,438.70939631407964 395.75862550989405,443.68043563667015 385.38963669676014,441.7282644803345 392.1890195142769,438.70939631407964 "/>
   <polygon fill="#0071bc" id="polygon101" points="388.6203835880733,433.38552893583255 384.37014917560737,439.5085815776656 390.5746022798994,436.31583888107343 388.6203835880733,433.38552893583255 "/>
   <polygon fill="#0071bc" id="polygon103" points="402.2181791536932,423.27049430195984 398.9884300480626,427.7932312696066 405.36325505765126,427.7932312696066 402.2181791536932,423.27049430195984 "/>
   <path fill="#0071bc" id="path105" d="m435.319427,331.459961c0.296967,0.355865 1.488739,2.129181 1.488739,2.129181l0.466431,-3.814026l-1.95517,1.684845z"/>
   <path fill="#0071bc" id="path107" d="m433.322357,328.486908l1.573456,2.085388l2.252197,-2.220581l-3.911377,-0.752472c0,0 -1.612488,6.743347 -1.486816,6.788055c0.12851,0.045776 3.952271,0.132202 3.952271,0.132202l-1.232727,-2.392548l-1.998016,0.884674l0.851013,-4.524719z"/>
   <polygon fill="#0071bc" id="polygon109" points="439.5696209897651,328.08729166868034 443.3515058893463,328.3517235989075 441.225917506541,330.57229802729125 439.5696209897651,328.08729166868034 "/>
   <polygon fill="#0071bc" id="polygon111" points="440.8451514035696,331.9480302691136 438.4235255520034,334.3872986569568 441.9065182071208,334.3872986569568 440.8451514035696,331.9480302691136 "/>
   <polygon fill="#0071bc" id="polygon113" points="438.33691221150366,329.1538535989457 437.91238211984455,333.41121307878893 440.12267142059136,331.4599604640989 438.33691221150366,329.1538535989457 "/>
   <path fill="#0071bc" id="path115" d="m443.649445,329.683655c0,0.135193 -0.340759,3.641083 -0.340759,3.641083l-1.527802,-1.865753l1.868561,-1.77533z"/>
   <polygon fill="#0071bc" id="polygon117" points="445.306694650586,329.3735201319123 444.58324459819414,333.5881133933708 447.34661204603617,331.59117683977456 445.306694650586,329.3735201319123 "/>
   <polygon fill="#0071bc" id="polygon119" points="446.24051118438365,328.30992995402994 451.2131978635589,328.442199951005 448.578350754884,330.83675697344916 446.24051118438365,328.30992995402994 "/>
   <path fill="#0071bc" id="path121" d="m448.239502,331.990753c-0.171356,0.1362 -2.805237,2.351837 -2.805237,2.351837l5.354401,0.222656l-2.549164,-2.707672l0,0.133179z"/>
   <polygon fill="#0071bc" id="polygon123" points="449.4293510770294,331.3705377333008 451.8509769285956,333.9897322199704 452.06325583255966,328.88550435875914 449.4293510770294,331.3705377333008 "/>
   <polygon fill="#0071bc" id="polygon125" points="452.99801471950195,329.1071430546708 452.8694943803348,334.2093717370062 455.37870364181435,331.77010334916304 452.99801471950195,329.1071430546708 "/>
   <polygon fill="#0071bc" id="polygon127" points="453.8051956204217,334.78694532061127 456.48386215032224,332.34559670609997 459.5404122912223,334.7421799233507 453.8051956204217,334.78694532061127 "/>
   <polygon fill="#0071bc" id="polygon129" points="459.7973975370187,329.5952128596855 459.7973975370187,333.54340202797175 457.5880505894165,331.5474380478827 459.7973975370187,329.5952128596855 "/>
   <polygon fill="#0071bc" id="polygon131" points="464.30176241957815,340.0670468910357 468.5072350576738,342.7300342014587 468.46629812842,339.89014657645384 464.30176241957815,340.0670468910357 "/>
   <polygon fill="#0071bc" id="polygon133" points="449.9252782775293,177.82219934532804 458.8759701754461,177.76452033316673 454.739982223633,183.0874421538374 449.9252782775293,177.82219934532804 "/>
   <path fill="#0071bc" id="path135" d="m462.162842,179.714767c-0.171356,0.296234 -2.492981,4.261307 -2.492981,4.261307l0.282684,8.99379l0.622528,-5.620117l1.303192,-1.835953l0.284576,-5.799026z"/>
   <path fill="#0071bc" id="path137" d="m446.807831,179.714767c0,0 2.378784,3.077469 2.267426,3.610229c-0.114227,0.531799 -1.586823,1.540741 -1.586823,1.540741l-0.851013,-0.237579l0.17041,-4.913391z"/>
   <path fill="#0071bc" id="path139" d="m443.975952,353.128326c0.169434,0 16.827606,0.353912 16.827606,0.353912l3.79425,26.977356l3.853271,-0.058685l-7.535217,-29.580627l-17.053192,1.183868l0.113281,1.124176z"/>
   <path fill="#0071bc" id="path141" d="m443.407684,352.064728c0,0.174988 -1.812439,22.952667 -4.191223,28.218933l-2.265503,0.060638l5.89035,-28.278503l0.566376,0l0,-0.001068z"/>
   <polygon fill="#0071bc" id="polygon143" points="444.4280889245565,344.01828885949726 443.8617069683605,349.4028070022887 460.06677195504017,349.75468950036884 460.5750883277651,344.6077494526344 460.1220104790773,344.54907085103514 459.3852289013157,348.2179423112484 445.7883479725715,348.1573185626348 445.2781468935573,344.25281415437894 453.5501227971836,344.1375641937793 456.7789572659385,344.19518917407913 444.37287811678834,342.9516999133011 444.4280889245565,344.01828885949726 "/>
   <path fill="#0071bc" id="path145" d="m463.579285,341.649567c0.452148,0.177856 5.212555,3.017792 5.212555,3.017792c0,0 -3.00415,2.838867 -3.11554,3.016815c-0.114227,0.178925 -2.097015,-6.034607 -2.097015,-6.034607z"/>
   <polygon fill="#0071bc" id="polygon147" points="465.5620766017237,349.75468950036884 469.41438854073203,346.5022686127395 470.1511701184936,350.109543750832 465.50401101825264,350.109543750832 465.5620766017237,349.75468950036884 "/>
   <polygon fill="#0071bc" id="polygon149" points="477.51693489220634,371.5711882538926 482.1916993963314,375.16652235059155 479.1741737621269,376.63165030728123 477.51693489220634,371.5711882538926 "/>
   <path fill="#0071bc" id="path151" d="m466.977539,351.558807c0.297028,0.091431 3.52774,0.091431 3.52774,0.091431l1.063263,3.415466l-4.591003,-3.506897z"/>
   <path fill="#0071bc" id="path153" d="m435.830566,344.506317c0.042847,-0.135193 4.631927,-2.884613 4.631927,-2.884613l-1.275543,6.434265l-3.356384,-3.549652z"/>
   <polygon fill="#0071bc" id="polygon155" points="436.3398441678655,339.44684216869973 435.7030074559734,342.6842692147602 440.03603036382265,339.66948045404934 436.3398441678655,339.44684216869973 "/>
   <polygon fill="#0071bc" id="polygon157" points="434.76824856903113,339.89014657645384 430.77411248175486,339.2688882328184 433.9182183162993,342.6842692147602 434.76824856903113,339.89014657645384 "/>
   <path fill="#0071bc" id="path159" d="m430.135376,341.620728c0.215149,0.176941 3.102203,2.708649 3.102203,2.708649l-4.461517,2.972076l1.359314,-5.680725z"/>
   <polygon fill="#0071bc" id="polygon161" points="435.1080777427487,345.9695144582565 434.0038615873855,349.6950653411932 438.67674138522125,350.0081799786403 435.1080777427487,345.9695144582565 "/>
   <polygon fill="#0071bc" id="polygon163" points="437.91238211984455,353.20089565930175 432.5579592682843,356.8846799132916 436.38269351967756,360.5674915937743 437.91238211984455,353.20089565930175 "/>
   <polygon fill="#0071bc" id="polygon165" points="435.44884926961095,365.84861976956745 429.0730541906087,369.6199356392026 433.5783891425817,374.27883289785314 435.44884926961095,365.84861976956745 "/>
   <path fill="#0071bc" id="path167" d="m428.011719,371.662598c-0.127594,0.177948 -3.060364,8.652832 -3.060364,8.652832l6.416748,-3.729492l-3.356384,-4.92334z"/>
   <polygon fill="#0071bc" id="polygon169" points="431.4965924647331,358.6620039657828 429.2015745297758,367.0901638833311 434.0876478684513,364.296014229094 434.81109792084317,361.63408053997045 431.4965924647331,358.6620039657828 "/>
   <path fill="#0071bc" id="path171" d="m433.02533,346.858154c-0.04187,0.133148 -0.721527,3.370667 -0.721527,3.370667l-4.250214,-0.619263l4.971741,-2.751404z"/>
   <path fill="#0071bc" id="path173" d="m424.171753,414.631622l-1.743866,-2.894562c-0.242737,-0.491089 -0.743439,-0.835968 -1.328827,-0.835968c-0.819641,0 -1.485931,0.669891 -1.485931,1.495972c0,0.307129 0.094238,0.595428 0.253204,0.834961c0.045685,0.064575 0.095184,0.126221 0.151337,0.183868l1.832428,2.634155l2.321655,-1.418427z"/>
   <path fill="#0071bc" id="path175" d="m427.687103,413.040161l-1.461151,-2.737518c-0.197998,-0.465179 -0.645386,-0.807098 -1.188904,-0.842896c-0.763428,-0.051666 -1.419281,0.514923 -1.464966,1.264374c-0.018127,0.281311 0.05426,0.55072 0.188446,0.778351c0.037109,0.062561 0.082825,0.118256 0.129456,0.174957l1.559204,2.509827l2.237915,-1.147095z"/>
   <path fill="#0071bc" id="path177" d="m428.819855,412.854279l2.747162,-0.886658c0,0 -1.130859,-3.343811 -2.576782,-2.4552c0,0 -1.501129,1.063599 -0.198914,3.282227c1.303131,2.219604 0.028534,0.059631 0.028534,0.059631z"/>
   <path fill="#0071bc" id="path179" d="m414.965973,419.983307c-0.003815,0.106323 2.180786,-1.418457 2.180786,-1.418457c0,0 -2.124603,-0.296204 -2.180786,1.418457z"/>
   <path fill="#0071bc" id="path181" d="m418.168152,417.913788c0.225616,-0.204742 2.351196,-1.508911 2.351196,-1.508911l-0.736755,-1.241547c0,0 -2.718628,-0.978088 -2.464478,1.50592l0.850037,1.244537z"/>
   <path fill="#0071bc" id="path183" d="m432.557953,411.641602l2.86142,-0.532776l-0.113281,-0.825043c0,0 -1.926636,-1.718658 -2.833801,0.38269l0.085663,0.975128z"/>
   <path fill="#0071bc" id="path185" d="m436.524475,410.725159l2.833801,-0.53183c0,0 -1.445892,-1.451233 -2.833801,0.53183z"/>
   <path fill="#0071bc" id="path187" d="m428.280151,350.641327c0.568268,0.179932 3.230713,0.7117 3.230713,0.7117l-0.793854,3.19574l-3.11557,-2.838867l0.678711,-1.068573z"/>
   <path fill="#0071bc" id="path189" d="m427.48819,353.661133c-0.267487,0.835022 2.663361,3.017792 2.663361,3.017792l-3.853241,1.951263c0,0 1.246033,-5.146973 1.18988,-4.969055z"/>
   <path fill="#0071bc" id="path191" d="m425.335938,362.299042c0.225586,0 3.399231,0.296204 3.399231,0.296204l0.849091,-3.965057l-4.248322,2.484009l0.056152,0.948303l2.834717,2.069519l-1.190796,3.668823l-2.436829,-3.96405l1.529694,7.455048l-4.363525,5.681793l3.570587,-14.674591z"/>
   <polygon fill="#0071bc" id="polygon193" points="462.474151644361,334.8743688725335 466.2988304632163,334.6974415420209 464.0047825976726,332.569288612749 462.474151644361,334.8743688725335 "/>
   <polygon fill="#0071bc" id="polygon195" points="403.15296575690445,412.08692557487666 417.0896481430973,412.52928442505436 423.6358151273962,402.05736934591187 415.81600243558205,409.7778739732712 403.15296575690445,412.08692557487666 "/>
   <path fill="#0071bc" id="path197" d="m467.741943,410.933838l2.806183,0.885681c0.000946,-0.000977 -0.086639,-3.283203 -2.806183,-0.885681z"/>
   <path fill="#0071bc" id="path199" d="m488.310486,416.788574c0.17038,0.354858 2.210297,4.348785 2.210297,4.348785l6.967896,-0.265381l-5.950317,-1.153107l-3.227875,-2.930298z"/>
   <path fill="#0071bc" id="path201" d="m492.04953,423.270508c0.339844,0.529816 2.719574,4.522736 2.719574,4.522736l3.400177,-4.258362l-3.400177,1.774353l-2.719574,-2.038727z"/>
   <path fill="#0071bc" id="path203" d="m496.80896,431.87561c0.25708,0.444305 2.890015,4.883545 2.890015,4.883545l3.908447,-0.0914l-3.399231,-1.331024l-3.399231,-3.461121z"/>
   <path fill="#0071bc" id="path205" d="m471.653259,412.439758l15.891907,8.875549c0,0 -13.001953,-11.446991 -14.364105,-11.360535c-1.358368,0.090454 -1.612518,1.9552 -1.612518,2.219635"/>
   <polygon fill="#0071bc" id="polygon207" points="467.9132754138627,354.577627490562 471.907411501139,357.33001051585234 469.4429640140297,360.3468254713698 467.9132754138627,354.577627490562 "/>
   <polygon fill="#0071bc" id="polygon209" points="472.5870698485742,359.28126313054236 470.12356471460953,363.0107583393692 473.77695699129254,364.5177069568672 472.5870698485742,359.28126313054236 "/>
   <polygon fill="#0071bc" id="polygon211" points="473.2686406185676,370.10897801772444 476.75160555741604,374.27883289785314 474.96584634832834,376.0561029184828 473.2686406185676,370.10897801772444 "/>
   <polygon fill="#0071bc" id="polygon213" points="470.71849442783423,332.48083845545807 469.18692112137796,334.51951462207035 471.7389520184006,334.78694532061127 470.71849442783423,332.48083845545807 "/>
   <path fill="#0071bc" id="path215" d="m439.017548,313.487305c0.596802,0.532806 2.3797,2.219666 2.3797,2.219666l4.674774,-5.14798l-2.209351,-3.282227l-4.929901,3.815033l0.084778,2.395508z"/>
   <path fill="#0071bc" id="path217" d="m440.291168,303.282837c0.256073,0.443298 2.040863,3.639069 2.040863,3.639069l-3.145081,2.215668l1.104218,-5.854736z"/>
   <path fill="#0071bc" id="path219" d="m440.122681,298.488739c0.255096,0.533752 3.229767,4.882538 3.229767,4.882538l3.908478,-4.170837l-2.888062,-4.437225l-4.250183,3.725525z"/>
   <polygon fill="#0071bc" id="polygon221" points="440.63193014646095,296.4500157990642 443.18301869033894,293.4322552859703 440.63193014646095,289.9680835330855 440.63193014646095,296.4500157990642 "/>
   <polygon fill="#0071bc" id="polygon223" points="440.887058402237,286.06660490907416 444.8821368426579,283.1353223903261 441.73708865496883,279.14339443014796 440.887058402237,286.06660490907416 "/>
   <polygon fill="#0071bc" id="polygon225" points="442.33201836819353,269.9139960382763 441.39725948125124,276.0371027119709 445.9016243638107,272.8413612470649 442.33201836819353,269.9139960382763 "/>
   <polygon fill="#0071bc" id="polygon227" points="442.5014479203455,266.54132724285773 446.83544089760835,262.9032809596356 443.2667772551358,259.08430898814913 442.33201836819353,266.9836590771047 442.5014479203455,266.54132724285773 "/>
   <polygon fill="#0071bc" id="polygon229" points="443.4362345235568,256.69169711271934 443.5219055109119,257.13308338938987 448.02627039347135,253.49495605837546 443.8617069683605,249.67898285520278 443.4362345235568,256.69169711271934 "/>
   <polygon fill="#0071bc" id="polygon231" points="444.7974359247164,240.18326141795114 444.0321065899261,247.81520782429652 448.02627039347135,244.79739327934112 444.7974359247164,240.18326141795114 "/>
   <polygon fill="#0071bc" id="polygon233" points="445.137265098434,239.20812139735972 448.53649918875453,236.19030685240432 445.306694650586,232.81663846754782 445.137265098434,239.20812139735972 "/>
   <polygon fill="#0071bc" id="polygon235" points="445.7312247422451,231.39619486032643 449.04573019835516,228.9996656749372 445.9872953511658,225.45004253307525 445.7312247422451,231.39619486032643 "/>
   <polygon fill="#0071bc" id="polygon237" points="446.15675261958677,224.3844801922478 449.4702880062832,221.63406932990256 446.49561172389076,217.9969956201876 446.15675261958677,224.3844801922478 "/>
   <polygon fill="#0071bc" id="polygon239" points="446.6650689923117,217.2862875298233 449.4702880062832,215.33403532569537 447.09151150652906,211.78343961032624 446.6650689923117,217.2862875298233 "/>
   <polygon fill="#0071bc" id="polygon241" points="447.34661204603617,210.80832660566557 450.0652177195079,208.58772516135105 447.8568131250504,206.4595452161484 447.34661204603617,210.80832660566557 "/>
   <path fill="#0071bc" id="path243" d="m447.770203,205.128555l2.380676,-1.864746c0,0 -1.784821,-2.838898 -1.784821,-2.484039c0,0.354858 -0.595856,4.348785 -0.595856,4.348785z"/>
   <polygon fill="#0071bc" id="polygon245" points="448.02627039347135,199.35835378541015 450.66014743273263,197.9379371941195 448.36607185092,195.18747229991277 448.02627039347135,199.35835378541015 "/>
   <polygon fill="#0071bc" id="polygon247" points="448.7915720119927,194.6566903083749 450.9152756885087,192.96986962391202 448.7915720119927,190.57331342259204 448.7915720119927,194.6566903083749 "/>
   <polygon fill="#0071bc" id="polygon249" points="449.30083073786227,189.59720082849344 450.83051933802926,188.62008864495692 449.72635861520394,186.6668638673218 449.30083073786227,189.59720082849344 "/>
   <path fill="#0071bc" id="path251" d="m442.898407,289.999939c0.339813,0.237518 1.474457,2.721558 1.474457,2.721558l3.624817,-4.380554l-3.060303,-0.232605l-1.811493,-2.488007l-0.227478,4.379608z"/>
   <polygon fill="#0071bc" id="polygon253" points="443.57900102496933,279.113541826664 445.61797606727487,281.717823519557 448.33752409389126,279.2318445874389 446.0720239853763,278.9952390658891 444.1444406280207,275.7995246169139 443.3515058893463,276.0371027119709 443.57900102496933,279.113541826664 "/>
   <polygon fill="#0071bc" id="polygon255" points="444.2576893029909,269.29073851576504 446.6374358721587,271.6564695400939 448.90390605008724,268.9349116917947 446.1853003766155,268.70133195448943 445.3914232847965,265.3882873182465 444.2576893029909,266.09502406678985 444.2576893029909,269.29073851576504 "/>
   <polygon fill="#0071bc" id="polygon257" points="445.16392814917344,259.11508013327875 447.88347617578984,261.9559943636523 449.4702880062832,261.0077351941618 447.2047601814993,259.3526582283357 448.90390605008724,254.73849935101498 445.0506240416653,257.6976623103019 445.16392814917344,259.11508013327875 "/>
   <polygon fill="#0071bc" id="polygon259" points="448.45080048513046,252.37076914781028 445.61797606727487,250.24059002373178 445.7312247422451,248.58559410569796 449.1323435388549,245.6264581623418 447.99675256702903,248.70384283461135 448.45080048513046,252.37076914781028 "/>
   <path fill="#0071bc" id="path261" d="m569.312073,417.604614c-2.558716,-1.390564 -5.920776,-2.835876 -10.374756,-4.365631c-12.919128,-4.437256 -9.518982,10.469818 -9.518982,10.469818c-15.80719,-6.564331 -23.796387,11.892365 -23.796387,11.892365c-13.42749,-3.727509 -22.43808,14.378296 -22.43808,14.378296c-23.966858,2.661987 -14.785828,27.334229 -14.785828,27.334229l3.89325,0.28125c0.217072,-6.974915 3.423981,-14.980652 16.503021,-16.436829c0,0 9.008789,-18.101898 22.436218,-14.373383c0,0 7.989197,-18.460754 23.79834,-11.892303c0,0 -3.400269,-14.912079 9.517029,-10.471924c1.752441,0.600403 3.332642,1.188934 4.76709,1.767395l0,-8.583282l-0.000916,0z"/>
   <path fill="#0071bc" id="path263" d="m410.967072,459.833099c0.906189,-3.077484 -3.854248,-6.153961 -3.854248,-6.153961c-2.265472,-5.443115 -26.854889,-10.29187 -26.854889,-10.29187c-7.818878,-11.714447 -30.934662,-11.952026 -30.934662,-11.952026c-4.398682,-11.587128 -14.990479,-7.741302 -17.46637,-7.165741l0,11.362518c3.786682,-0.964264 12.28421,-2.551666 16.106079,7.51767c0,0 23.116791,0.237579 30.935669,11.952881c0,0 24.122009,5.298065 27.068085,10.089203c0,0 1.528748,1.329987 2.7034,2.902466l4.562439,0c-0.008575,-5.421265 -3.170746,-5.18866 -2.265503,-8.261139z"/>
   <path fill="#0071bc" id="path265" d="m508.862885,454.240753c-58.859528,-101.876801 -116.330231,-0.002991 -115.482086,-1.065521c58.917572,-73.883636 95.903473,-23.269775 108.773071,1.065521l6.709015,0z"/>
  </g>
  <g transform="rotate(-0.336181, 480.514, 75.5449)" id="g267">
   <path fill="#0071bc" id="path269" d="m384.812988,42.540985c0,0 27.678009,27.680023 27.959015,28.054016c0.282013,0.376007 4.597992,-1.031006 4.597992,-1.031006l0.187988,-1.78299l4.783997,1.125l3.002014,-0.468018l0.375977,-7.880981l-12.383972,-13.794006c0.001007,-0.001007 -19.984009,-5.911011 -28.52301,-4.222015z"/>
   <path fill="#0071bc" id="path271" d="m410.803009,31.095001l15.855988,23.735992c0,0 5.254028,-14.917999 5.817017,-15.104004c0.563965,-0.187988 -13.041016,-9.664001 -21.673004,-8.631989z"/>
   <path fill="#0071bc" id="path273" d="m429.005005,13.454987c-0.296997,0.005005 15.011963,25.522003 15.011963,25.522003l5.254028,0.751007l5.440979,-9.946991c0,0 -18.857971,-16.419006 -25.70697,-16.326019z"/>
   <path fill="#0071bc" id="path275" d="m516.261963,50.515991c0,0 30.869019,26.083984 30.680054,30.492981l1.876953,-0.468994c0,0 2.157043,-27.86499 -3.002991,-36.122986c0,0 -15.855957,-7.130005 -29.554016,6.098999z"/>
   <path fill="#0071bc" id="path277" d="m558.390015,63.088013l19.984009,19.421997c0,0 3.470947,-0.468994 3.376953,-1.220032c-0.094971,-0.75 -0.094971,-0.75 -0.094971,-0.75l9.006958,0.281006l3.847046,5.255005c0,0 3.096008,0 3.190002,0.656006c0.093994,0.656006 0.187988,0.280029 0.187988,0.280029c0,0 5.441956,-22.705017 4.315979,-23.925018c0,0 -20.922974,-1.406006 -27.396973,5.348999c0.000977,0.001007 -11.632996,-6.097992 -16.416992,-5.347992z"/>
   <path fill="#0071bc" id="path279" d="m433.132996,40.382996l44.378967,36.21698c0,0 2.909058,1.968994 3.659058,-4.034973c0,0 11.44696,2.531982 12.104004,3.002991l6.005005,7.223999c0,0 -6.848999,-12.665985 -10.414063,-16.980988c-3.565979,-4.317017 -20.359985,-15.481018 -24.300964,-17.92099c-3.940002,-2.439026 -12.291016,-10.038025 -31.711975,-7.506012"/>
   <path fill="#0071bc" id="path281" d="m449.740967,40.006989l2.814026,0.562012c0,0 5.348022,-8.816986 6.286987,-9.661987c0.938049,-0.845001 11.353027,7.691986 11.728027,8.349976c0.375,0.656006 8.72699,9.288025 9.945984,10.696014c1.218994,1.406006 20.359985,32.463013 20.546997,33.213989c0.187988,0.75 -7.130005,-16.513977 -10.132996,-22.143005c-3.000977,-5.629974 -12.195984,-16.513977 -12.758972,-17.263977c-0.562988,-0.75 -18.578003,-18.391022 -20.546997,-17.451996c-1.973022,0.940979 -7.603027,12.572998 -7.883057,13.698975z"/>
   <path fill="#0071bc" id="path283" d="m483.110962,36.317993c0,0 19.515015,17.450012 21.704041,21.141998c2.190002,3.688995 -13.01001,-26.019989 -15.262024,-26.395996c-2.250977,-0.376007 -6.505005,4.627991 -6.442017,5.253998z"/>
   <path fill="#0071bc" id="path285" d="m476.60498,6.292999c0,0 41.159058,38.779999 40.281982,77.811981l-0.125,2.502014l1.376038,0.500977c0,0 1.125,-15.63797 0.625,-20.265961c-0.501038,-4.628021 -4.378967,-17.641022 -5.378967,-19.641998c-1,-2.001007 -8.006042,-17.388 -12.13501,-22.268005c-4.126038,-4.878021 -18.138062,-18.388 -24.644043,-18.639008z"/>
   <path fill="#0071bc" id="path287" d="m475.22998,6.667999l3.251038,2.502991c0,0 -8.005005,16.012024 -7.380005,18.640015l-3.252014,-1.125c0,0 3.502991,-15.514008 7.380981,-20.018005z"/>
   <path fill="#0071bc" id="path289" d="m480.421021,13.832001l2.626953,2.627014c0,0 -6.380981,13.134979 -6.567993,13.978973l-2.250977,-1.312988c0,0 4.971985,-14.449005 6.192017,-15.292999z"/>
   <path fill="#0071bc" id="path291" d="m429.380005,69.093994c0,0 3.565002,4.503998 4.784973,5.06601c1.220032,0.562988 28.429993,-2.063995 29.179993,-2.440002c0.75,-0.373993 -9.945984,-4.597992 -11.447998,-5.253998c-1.5,-0.656006 -8.537964,-1.220001 -9.757996,-2.90799c-1.218994,-1.688019 -1.312988,0.093994 -1.312988,0.093994c0,0 -10.695984,5.630005 -11.445984,5.441986z"/>
   <path fill="#0071bc" id="path293" d="m434.259033,43.949005c0,0 5.347961,3.096985 6.098999,4.128998c0.75,1.031982 0.75,5.160004 0.75,5.160004c0,0 -9.665039,11.070007 -10.415039,13.229004c-0.75,2.158997 -3.752991,2.346985 -3.752991,2.346985c0,0 0.656982,-16.890991 7.319031,-24.86499z"/>
   <path fill="#0071bc" id="path295" d="m425.252014,69.187012c0.391968,0.065979 3.565002,5.347992 3.938965,6.286987c0.376038,0.937988 -18.388977,-1.312988 -19.044983,-1.688995c-0.656006,-0.376007 7.319,-5.911011 15.106018,-4.597992z"/>
   <path fill="#0071bc" id="path297" d="m386.971985,46.106995c0,0 24.019012,24.77002 24.113007,25.239014c0.094025,0.468994 -3.56601,1.218994 -3.56601,1.218994c0,0 0,-4.03299 -1.031982,-4.69101c-1.031006,-0.656982 -13.697998,-6.566986 -14.449005,-6.380981c-0.75,0.188995 -5.06601,-15.386017 -5.06601,-15.386017z"/>
   <path fill="#0071bc" id="path299" d="m391.381989,62.619995c0,0 12.479004,4.410004 13.042023,5.442017c0.562988,1.031982 0.937988,2.627991 0.937988,2.627991c0,0 -26.270996,1.593994 -26.73999,-1.972015c0,0 7.130981,-2.345001 8.164001,-2.063995c1.029999,0.282013 4.595978,-4.033997 4.595978,-4.033997z"/>
   <path fill="#0071bc" id="path301" d="m518.890015,85.794006l0.093018,1.218994c0,0 27.395996,-1.968994 28.052979,-2.90802c0.656006,-0.937988 -3.705994,-7.598999 -3.705994,-7.598999l-7.740051,4.127991c0,0 -10.272949,-5.207947 -11.305969,-4.644958c-1.031982,0.562012 -5.440979,9.429016 -5.393982,9.662964"/>
   <path fill="#0071bc" id="path303" d="m412.960999,80.541016c0,0 47.474976,5.815979 49.070007,4.690002l0.093994,2.626953c0,0 -47.570007,-2.907959 -49.352997,-4.689941l0.188995,-2.627014z"/>
   <path fill="#0071bc" id="path305" d="m408.268982,86.827026c0,0 43.254028,6.755981 53.762024,5.628967l0.093994,2.346008c0,0 -53.574005,-3.564026 -54.042999,-5.817017l0.186981,-2.157959z"/>
   <path fill="#0071bc" id="path307" d="m403.390991,94.98999c-0.151001,-0.302979 -2.721008,2.437988 -2.721008,2.437988c0,0 36.871033,8.009033 61.361023,7.697998c0.093994,-0.001953 0.187988,-0.001953 0.281006,-0.005005l0.093994,-3.471985c0,0.001038 -57.702026,-4.031982 -59.015015,-6.658997z"/>
   <path fill="#0071bc" id="path309" d="m380.919983,74.113007l0.047028,1.736969l-1.971008,0c0,0 2.720001,2.438049 19.514984,3.847046l-0.093994,-2.582031c0.001007,0 -17.026978,-0.75 -17.497009,-3.001984z"/>
   <path fill="#0071bc" id="path311" d="m571.335999,131.95697c0,0 -3.28302,3.003052 -2.90802,3.940002c0.375,0.938049 4.785034,0.845032 4.785034,0.845032l0.562988,1.875977l3.375977,1.595032l3.473022,-3.848022c0,0 -1.313965,-4.690002 -3.190979,-5.065979c-1.874023,-0.375 -5.910034,-0.001038 -6.098022,0.657959z"/>
   <path fill="#0071bc" id="path313" d="m501.25,134.958984c0,0 70.932007,6.098999 71.307007,6.002991c0.375,-0.092957 0.187012,2.064026 0.187012,2.064026c0,0 -70.837036,-4.221008 -71.494019,-8.067017z"/>
   <path fill="#0071bc" id="path315" d="m573.494995,140.304993l0.562988,-0.937012l2.533997,1.312012c0,0 -1.971008,2.346008 -2.533997,2.15802c-0.562988,-0.184998 -0.562988,-2.53302 -0.562988,-2.53302z"/>
   <path fill="#0071bc" id="path317" d="m567.489014,124.54303l-2.90802,-0.188049l1.595032,-4.783997l-0.657043,0.093994l-1.875977,4.503052l-5.065979,-0.282043l-0.751038,-1.031006l-3.190002,-0.281982l0,-3.939026l-0.468994,-0.093994l-0.281006,3.65802l-8.349976,-0.279968l-6.755981,-0.376038l-0.093018,-2.627014l-11.447998,-1.218994l0.094971,-1.971008l-0.563965,-0.376953l-0.468018,-5.629028l-0.656982,-0.187988l0,6.380005l-6.661011,-0.281006l0.093018,-7.880981l-1.501038,-0.093994l0.095032,4.597961l-2.065002,-0.094971l0.093994,-3.846008l-1.407043,-0.093994l-0.750977,11.727966c0,0 -5.534973,-0.375 -6.659973,1.782043c0,0 55.167969,6.566956 56.013,6.380981c0.843994,-0.187988 5.628967,-3.190979 5.628967,-3.190979l-1.034973,-0.375zm-42.877014,-2.814026l-1.031982,0l0,-1.031982l1.031982,0l0,1.031982zm3.002014,0.281006l-0.937012,0l0,-0.937988l0.937012,0l0,0.937988zm2.907959,0.375977l-0.842957,0l0,-1.125977l0.842957,0l0,1.125977zm2.815063,0.281006l-0.938049,0l0,-1.125977l0.938049,0l0,1.125977z"/>
   <path fill="#0071bc" id="path319" d="m499.749023,132.52002l0.375,0.436951c0,0 -1.062988,-0.125 -1,0.688049c0.062012,0.811951 0.687988,0.75 0.937988,0.811951c0.25,0.063049 0.313965,0.438049 0.687988,0.813049c0.375977,0.375 0,0.187988 2.315002,1.376953c2.314026,1.188049 3.064026,1.938049 3.440002,1.688049c0.375977,-0.25 0,0.500977 0,0.500977c0,0 -4.252991,-2.065002 -4.81604,-2.254028c-0.561951,-0.185974 -2.000977,-0.5 -2.189941,-0.623962c-0.187012,-0.126038 -0.062012,-1 -0.062012,-1c0,0 -2.439026,0.5 -2.877014,-0.314026c-0.437988,-0.812012 0.562988,-1.375 1.062988,-1.437988c0.5,-0.060974 1.939026,-0.812012 2.126038,-0.685974z"/>
   <path fill="#0071bc" id="path321" d="m572.932007,137.39801l-5.629028,-0.471008l-0.562988,-1.125l3.752991,-3.752014l-1.311951,-1.315002l-0.188049,-4.971985l-5.440979,3.28302c0,0 -1.141968,-0.117004 -3.096985,-0.319031l0,2.666016l-1.032043,0l0,-2.772034c-0.654968,-0.067993 -1.375977,-0.141968 -2.156982,-0.223999l0,2.338013l-0.937988,0l0,-2.435974c-0.570007,-0.059998 -1.163025,-0.121033 -1.78302,-0.187012l0,2.71698l-0.844971,0l0,-2.802979c-0.575012,-0.060974 -1.171997,-0.122009 -1.782043,-0.187988l0,2.61499l-1.125977,0l0,-2.731995c-1.432007,-0.148987 -2.940979,-0.307007 -4.502991,-0.471008l0,1.890015l-1.126038,0l0,-2.007996c-0.434937,-0.045044 -0.871948,-0.091003 -1.312988,-0.138l0,2.145996l-1.688965,0l0,-2.322998c-0.621033,-0.064026 -1.248047,-0.131042 -1.875977,-0.197021l0,2.145996l-0.844055,0l0,-2.234985c-0.498962,-0.052002 -1,-0.104004 -1.5,-0.15802l0,2.299988l-1.407959,0l0,-2.447998c-14.544006,-1.540955 -29.55304,-3.175964 -29.64801,-3.368958l-0.095032,1.876953c0,0 -2.532959,0.937012 -2.344971,1.689026l1.971008,1.312012l-0.375,1.406982c0,0 -4.504028,-0.375 -5.067017,0.937988c-0.255005,0.595032 -0.335999,0.669006 -0.349976,0.572021c-0.077026,0.731018 -0.109985,2.10498 0.630981,2.710999c0,0 70.085999,7.413025 71.494019,6.005981c1.401978,-1.407959 0.182983,-1.969971 0.182983,-1.969971zm-5.113037,-10.27301c0.328003,0.187988 0.516052,0.892029 0.516052,0.892029l-0.046021,4.54895l-0.937988,0.939026l-0.046997,-5.864014c0.09198,-0.234985 0.514954,-0.515991 0.514954,-0.515991zm-57.373962,4.643005l-0.937988,-0.280029l-0.093018,-2.721985l0.279968,-0.093994l0.845032,0l-0.093994,3.096008zm2.53302,0.281982l-1.032043,0l0,-3.377991l1.032043,0l0,3.377991zm0.281982,-4.972961l-1.125977,-0.093018l0.093994,-2.533997l1.031982,0l0,2.627014zm2.344971,5.16095l-0.938965,0l0,-2.721985l0.938965,0l0,2.721985zm0.281006,-4.973999l-1.031006,0.095032l0.093018,-2.908997l1.031006,0.281982l-0.093018,2.531982zm2.533997,6.756042l-1.031982,0l0,-3.752991l1.031982,0l0,3.752991zm-0.75,-5.817017l-0.188965,-3.377991l1.408997,0.187988l0.093018,3.28302l-1.313049,-0.093018zm3.377014,5.067017l-0.937988,0l0,-1.40802l0.937988,0l0,1.40802zm0.375,-6.286011l-1.125977,0l0,-1.78302l1.125977,0l0,1.78302zm2.346008,6.472961l-1.312988,0l0,-2.438965l1.312988,0l0,2.438965zm0,-6.003967l-0.937988,0l0,-1.971008l0.937988,0l0,1.971008zm2.721008,6.286011l-0.939026,0l0,-2.721985l0.939026,0l0,2.721985zm0.375,-6.380005l-1.314026,0l0,-1.690002l1.314026,0l0,1.690002zm2.626953,6.192017l-1.125977,0l0,-2.253052l1.125977,0l0,2.253052zm0.281006,-5.44104l-1.312988,0l0,-1.971008l1.312988,0l0,1.971008zm0.843994,1.595032l-0.561951,0l0,-0.845032l0.561951,0l0,0.845032zm1.595032,4.407959l-1.218994,0l0,-2.344971l1.218994,0l0,2.344971zm0.096008,-5.816956l-1.03302,0l0,-1.970032l1.03302,0l0,1.970032zm2.718994,6.286987l-1.218994,0l0,-2.721008l1.218994,0l0,2.721008zm0.094971,-6.098022l-1.219971,0l0,-1.971985l1.219971,0l0,1.971985zm2.90802,5.910034l-1.406982,0l0,-2.252014l1.406982,0l0,2.252014zm2.346008,0.469971l-1.125977,0l0,-2.344971l1.125977,0l0,2.344971zm3.28302,0.093994l-1.501038,0l0,-2.065002l1.501038,0l0,2.065002zm2.533997,0.562012l-1.126038,0l0,-2.627014l1.126038,0l0,2.627014zm1.5,-7.880981l1.220947,0l0,3.094971l-1.220947,0l0,-3.094971zm1.313965,9.382996l-1.313965,0l0,-4.410034l1.313965,0l0,4.410034zm2.628052,-1.031982l-0.938049,0l0,-2.90802l0.938049,0l0,2.90802zm2.813965,0.09198l-1.031982,0l0,-2.906982l1.031982,0l0,2.906982zm2.90802,0.188965l-1.126038,0l0,-2.720947l1.126038,0l0,2.720947zm2.909973,0l-1.125,0l0,-2.532959l1.125,0l0,2.532959zm4.315002,-0.608948c0,0 -0.093994,0.608948 -0.562012,0.701965c-0.468994,0.095032 -0.422974,-0.138977 -0.563965,-0.562012c-0.140015,-0.420959 0.140991,-2.203979 0.140991,-2.203979l1.03302,0.75l-0.048035,1.314026zm0.046997,-2.393005l-0.844971,-0.798035c0,0 0.046997,-2.346008 0.046997,-2.579956c0,-0.234009 0.234985,-0.985046 0.469971,-1.032043c0.234009,-0.047974 0.515015,1.032043 0.515015,1.032043l-0.187012,3.377991zm1.78302,1.594971l-0.843994,-0.752014c0,0 0,-4.830994 0,-5.158997c0,-0.328979 0.234985,-1.125977 0.515991,-1.125977c0.280029,0 0.421997,1.031982 0.421997,1.031982l-0.093994,6.005005zm-65.791992,-4.213013c0.031006,-0.286987 0.067993,-0.479004 0.067993,-0.479004c0,0 -0.083984,0.363037 -0.067993,0.479004z"/>
   <path fill="#0071bc" id="path323" d="m581.688965,136.521973c0,0 2.064026,2.503052 3.878052,3.314026c1.813965,0.812988 15.511963,2.815979 18.578003,1.627991c3.063965,-1.188965 7.317993,1.187988 8.942993,1.687988c1.626953,0.499023 2.940002,0.312012 2.940002,0.312012l0.125,0.625c0,0 -11.445984,-1.937988 -12.322021,-1.373962c-0.876038,0.561951 -16.826965,-0.126038 -18.576965,-1.564026c-1.752014,-1.439026 -4.629028,-3.190002 -4.81604,-3.064026c-0.187988,0.124023 1.250977,-1.565002 1.250977,-1.565002z"/>
   <path fill="#0071bc" id="path325" d="m579.75,139.025024c0,0 4.377991,3.187988 5.815979,3.377991c1.438049,0.187012 11.070984,1.279968 13.854004,1.312012c0,0 3.97406,0.373962 4.659973,-0.188049c0.688049,-0.561951 4.19104,-0.061951 5.06604,0.25c0.875,0.312012 4.19104,0.563049 4.19104,0.563049l0.061951,0.437988c0,0 -6.734985,-0.737 -7.754944,-0.562012c-1.096069,0.187988 -4.912048,0.687988 -6.005005,0.562012c-0.759033,-0.085022 -13.824036,-0.5 -15.013062,-1.812012c-1.187988,-1.315002 -6.066956,-2.189026 -6.066956,-2.189026l1.190979,-1.751953z"/>
   <path fill="#0071bc" id="path327" d="m578.311035,141.588013c0,0 3.565979,0.937988 4.878967,1.627014c1.314026,0.687988 2.314026,1 2.314026,1l0,0.312988c0,0 -6.929016,-1.502014 -7.380005,-1.502014c-0.032043,0 0.125,-1.250977 0.125,-1.250977"/>
   <path fill="#0071bc" id="path329" d="m344.937988,94.98999c0,0 29.085022,6.567017 31.337006,5.81604c2.252014,-0.751038 23.830994,2.251953 25.708008,2.063965c1.876984,-0.187988 36.404022,2.250977 36.96701,2.439026c0.562012,0.187988 0,5.440979 0,5.440979c0,0 -94.575012,-4.125977 -94.950012,-10.31897l0,-5.817017l0.937988,0.375977z"/>
   <path fill="#0071bc" id="path331" d="m444.955017,106.809998l0,6.005981c0,0 -1.126038,3.377014 58.546997,0l0.186951,-6.94397c0,0 -38.279968,5.628967 -58.733948,0.937988z"/>
   <polygon fill="#0071bc" id="polygon333" points="531.2730102539062,104.93499755859375 531.4609985351562,110.7509765625 616.6539916992188,107.75 617.0289916992188,101.7440185546875 531.2730102539062,104.93499755859375 "/>
   <polygon fill="#0071bc" id="polygon335" points="600.7039794921875,92.54998779296875 600.5159912109375,97.24102783203125 616.842041015625,97.99200439453125 617.0289916992188,91.98797607421875 600.7039794921875,92.54998779296875 "/>
   <polygon fill="#0071bc" id="polygon337" points="525.08203125,95.177001953125 524.8930053710938,102.3070068359375 527.89599609375,102.8709716796875 527.89599609375,95.177001953125 525.08203125,95.177001953125 "/>
   <polygon fill="#0071bc" id="polygon339" points="556.22998046875,91.61102294921875 555.66796875,100.05499267578125 560.9219970703125,100.2440185546875 563.1740112304688,99.86798095703125 562.9859619140625,95.927001953125 560.1719970703125,90.86102294921875 556.22998046875,91.61102294921875 "/>
   <polygon fill="#0071bc" id="polygon341" points="566.363037109375,94.239013671875 569.1799926757812,94.239013671875 569.3670043945312,100.4310302734375 566.552001953125,100.6190185546875 566.363037109375,94.239013671875 "/>
   <polygon fill="#0071bc" id="polygon343" points="495.2449951171875,92.1729736328125 516.073974609375,90.4849853515625 548.3499755859375,89.5469970703125 548.5379638671875,91.61102294921875 515.698974609375,92.92498779296875 505.37799072265625,93.676025390625 495.2449951171875,94.04998779296875 495.2449951171875,92.1729736328125 "/>
   <polygon fill="#0071bc" id="polygon345" points="569.1799926757812,89.1710205078125 590.1950073242188,89.1710205078125 590.3829956054688,91.61102294921875 569.3670043945312,91.79901123046875 569.1799926757812,89.1710205078125 "/>
   <path fill="#0071bc" id="path347" d="m378.339996,80.164001c0,0.750977 -0.751007,5.255005 -0.751007,5.255005l-3.188995,2.438965l-3.002991,-1.312988l-1.876007,1.501038l-1.312988,-0.938049l-1.688019,1.501038l-1.688995,-0.562988l-2.815002,1.687988l-1.501984,0.563965l-0.562012,1.312012c0,0 -7.505981,-0.75 -11.259003,0.187988c0,0 44.473999,5.06604 49.165009,3.565002c4.690002,-1.501953 -4.878998,-2.438965 -4.878998,-2.438965l-3.190002,-3.754028l-3.377014,1.312988l-1.688995,-2.626953l-3.563995,1.125977l-0.751984,-2.250977l-1.125,-1.126038l0.186981,-5.442993l-1.128998,0l0,0.002014z"/>
  </g>
  <g transform="translate(1, 104) translate(6, 9) translate(0) scale(1.05841, 1.03414) translate(-0) translate(0) scale(0.936323, 0.9717) translate(-0)" id="g349">
   <path fill="#0071bc" id="path351" d="m60.395,183.261002l0,-4.436996c0,0 6.155003,-5.871002 6.729,-5.871002c0.572998,0 5.725998,3.580002 6.298996,4.723999c0.572006,1.145996 0.716003,5.727005 0.716003,5.727005l-13.743999,-0.143005z"/>
   <path fill="#0071bc" id="path353" d="m60.872002,188.511993c0,0 7.252998,-3.53299 12.788002,0.381012l0.668999,7.634995c0,0 -7.636002,-2.098007 -14.126003,0.763l0.669003,-8.779007z"/>
   <path fill="#0071bc" id="path355" d="m60.776001,203.397995c0.094997,-0.285995 8.111,-4.580994 13.838997,-0.190002l1.812004,39.035004l-17.082001,0l1.431,-38.845001z"/>
   <path fill="#0071bc" id="path357" d="m57.674,198.509003c0,0 10.952999,-4.294998 19.756001,0.429001l0.142998,2.789993c0,0 -10.306999,-3.935989 -18.968998,0.572998l-0.93,-3.791992z"/>
   <polygon fill="#0071bc" id="polygon359" points="56.601,242.816 79.363,242.96 79.363,246.754 56.672,246.395 56.529,243.03 56.601,242.816 "/>
   <path fill="#0071bc" id="path361" d="m58.771999,249.973007c0.095001,-0.286011 10.02,-5.057007 17.941998,0.191986l1.622002,31.494003l3.150002,0.572998l-0.191002,4.770996l-3.244995,1.050995c0,0 -7.540001,-5.343994 -19.374004,-0.094971l-3.435997,-1.719025l0.094997,-3.625l3.245003,0.095001l0.191998,-32.736984z"/>
   <ellipse fill="#0071bc" id="ellipse363" ry="2.471" rx="2.505" cy="125.892" cx="243.25301"/>
   <ellipse fill="#0071bc" id="ellipse365" ry="1.896" rx="1.825" cy="131.452" cx="243.313"/>
   <ellipse fill="#0071bc" id="ellipse367" ry="1.682" rx="1.718" cy="117.708" cx="243.30099"/>
   <ellipse fill="#0071bc" id="ellipse369" ry="1.657" rx="1.424" cy="110.837" cx="243.246"/>
   <rect fill="#0071bc" id="rect371" height="29.705" width="1.288" y="108.391" x="242.633"/>
   <path fill="#0071bc" id="path373" d="m223.449997,150.479996c0,0 17.822998,-12.024994 19.899002,-16.106003c0,0 17.679993,13.171005 20.542999,14.102005c2.863007,0.931 0.429016,1.001999 0.429016,1.001999c0,0 -12.239014,-5.298004 -40.871017,1.001999z"/>
   <path fill="#0071bc" id="path375" d="m198.875,205.212997c-0.095001,-0.285995 -1.623001,-11.834 -1.623001,-11.834c0,0 0.001007,-10.973999 2.768005,-16.317993c2.766998,-5.346008 6.681,-11.263 10.020996,-14.509003c3.339996,-3.242004 13.552002,-10.401001 15.078995,-11.641998c1.528,-1.238998 34.359009,-2.958008 37.602997,-0.286011c3.244995,2.673004 8.971008,5.820007 10.785004,7.63501c1.813019,1.813995 8.016998,5.535995 10.020996,9.065994c2.005005,3.531998 4.867004,7.063004 5.72702,11.167999c0.858002,4.102997 1.908997,8.587997 1.811981,13.169006c-0.095001,4.580994 0,6.681 -0.381989,10.022003c-0.381012,3.338989 -0.667999,3.529999 -0.953003,4.294998c-0.286011,0.763 -4.772003,-3.531998 -9.162994,-4.678009c-4.390015,-1.145996 -16.891998,-1.048996 -18.992004,-1.23999c-2.100006,-0.192001 -10.020996,-0.860001 -13.934998,-0.764999c-3.912003,0.097 -18.992004,1.240997 -21.568008,1.431992c-2.576996,0.192001 -15.938995,1.432007 -18.802002,2.291c-2.862991,0.858002 -8.397995,2.387009 -8.397995,2.387009l0,-0.193008l0,0z"/>
   <path fill="#0071bc" id="path377" d="m295.64801,286.144989l17.559998,0l-0.188995,-12.789001c0,0 -4.581024,-3.626984 -7.444,-4.199982c-2.862,-0.571014 -8.590027,5.919006 -9.926025,7.252991c-1.336975,1.335999 -0.000977,9.735992 -0.000977,9.735992z"/>
   <path fill="#0071bc" id="path379" d="m329.673004,286.479004l11.309998,0.143982l0,-18.609985c0,0 -1.860992,-4.438995 -2.434998,-5.01001c-0.571991,-0.574005 -9.449005,17.178009 -8.875,23.476013z"/>
   <path fill="#0071bc" id="path381" d="m286.725006,224.203995c-0.100006,0.190002 -0.214996,-6.439987 0.716003,-7.944992c0.931976,-1.501007 9.949005,-10.236008 12.526978,-12.02301l0.286011,-9.806l0.644989,-0.143997l0.572021,9.949997c0,0 9.947998,4.938004 12.384003,9.377014c2.431976,4.436996 2.289001,9.089996 2.360992,10.44899c0.070007,1.360001 -28.201996,-2.289993 -29.490997,0.141998z"/>
   <path fill="#0071bc" id="path383" d="m148.436005,232.723999c0,-0.214996 0.071991,-11.740997 0.071991,-11.740997c0,0 -0.860001,-0.141998 -1.002991,-0.429001c-0.143005,-0.285995 0.429993,-2.718994 1.575989,-4.007004c1.145004,-1.287994 3.507004,2.934998 3.436005,4.07901c-0.071991,1.145996 -1.862,0.287994 -1.862,0.287994l-0.143005,11.953003l-2.075989,-0.143005z"/>
   <path fill="#0071bc" id="path385" d="m154.376007,233.223999c0.357986,0 2.291,0 2.291,0l-0.286011,-4.580994l0.930008,-0.070007c0,0 -1.646011,-3.436996 -1.861008,-4.153c-0.214996,-0.714996 -2.576996,3.581009 -2.432999,4.080002c0.143005,0.503006 1.359009,0.429001 1.359009,0.429001l0,4.294998l0,0z"/>
   <path fill="#0071bc" id="path387" d="m205.841995,217.621002c0,0 46.811005,-8.016998 77.590012,-1.145004l0,8.874008l-77.304001,2.145996l-0.286011,-9.875z"/>
   <path fill="#0071bc" id="path389" d="m220.444,247.826004l0.287003,25.339005l1.860992,0.28598c0,0 2.003998,-7.014984 3.436005,-8.302979c1.432007,-1.288025 15.604004,-8.446014 17.895004,-10.308014c2.289993,-1.860992 0.858994,-0.572998 0.858994,-0.572998c0,0 12.311996,5.868988 15.315994,7.444c3.007019,1.575989 6.585999,6.729004 7.303009,8.734009c0.716003,2.002991 0.716003,2.002991 0.716003,2.002991l1.144989,-0.285004l0,-24.909988l-48.817993,0.572998z"/>
   <path fill="#0071bc" id="path391" d="m238.768997,286.192993c0,0 8.016006,-2.43399 10.020004,-4.583008c2.005005,-2.145996 4.582001,-0.428986 6.011993,0.144012c1.433014,0.572998 12.598999,6.729004 12.598999,6.729004l1.574005,0.572998l-0.286987,33.928009l-40.227005,0.570984l-0.287003,-24.90799c0,0 1.001999,-4.865997 3.435989,-7.300018c2.434006,-2.43399 6.729004,-5.01297 7.160004,-5.153992z"/>
   <path fill="#0071bc" id="path393" d="m286.868011,231.744995l-0.095001,10.975998l3.338989,-0.285995c0,0 -0.761993,-10.309998 0,-10.882996c0.764008,-0.570007 -3.243988,0.192993 -3.243988,0.192993z"/>
   <path fill="#0071bc" id="path395" d="m294.600006,242.242996l3.626007,0.095001l-0.190002,-7.824997c0,0 1.812988,-3.626999 3.815979,-4.197998c2.005005,-0.572998 3.149017,2.192993 3.914001,3.625c0.763,1.431992 0.47702,8.397995 0.47702,8.397995l3.436981,0.097l0.095001,-5.343994l2.768005,0.285995c0,0 -2.768005,-7.063004 -3.912994,-7.541992c-1.14502,-0.476013 -12.884003,-0.093002 -12.884003,-0.093002c0,0 -2.003998,1.619995 -2.958008,1.619995c-0.954987,0 1.622009,3.056 1.813019,3.819c0.188995,0.764008 -0.001007,7.061996 -0.001007,7.061996z"/>
   <path fill="#0071bc" id="path397" d="m316.549988,233.75c-0.095001,-0.285995 0,8.587997 0,8.587997l-3.435974,0.097l0.189972,-4.677994c0.001007,0.000992 3.341003,-3.721008 3.246002,-4.007004z"/>
   <polygon fill="#0071bc" id="polygon399" points="321.322,226.116 318.458,229.169 319.699,229.55 320.08,242.816 322.275,242.816 322.181,231.84 322.181,229.263 323.803,228.977 321.322,226.116 "/>
   <path fill="#0071bc" id="path401" d="m286.29599,243.960007l35.503021,-0.570999c0,0 20.518982,2.290985 21.377991,3.243988c0.859985,0.956009 1.240997,2.291 1.240997,2.291l-58.980988,-0.382996l-0.285004,-4.483002l1.143982,-0.097992z"/>
   <path fill="#0071bc" id="path403"/>
   <path fill="#0071bc" id="path405" d="m277.794373,149.688354l0,-3.753143c0,0 4.11087,-4.96611 4.493561,-4.96611c0.382629,0 3.824341,3.029068 4.206329,3.996735c0.382599,0.969376 0.478088,4.844299 0.478088,4.844299l-9.177979,-0.12178z"/>
   <path fill="#0071bc" id="path407" d="m278.112946,154.130051c0,0 4.844055,-2.989365 8.540894,0.320557l0.446106,6.459091c0,0 -5.098541,-1.776321 -9.432404,0.646271l0.445404,-7.425919z"/>
   <path fill="#0071bc" id="path409" d="m278.0495,166.722534c0.063446,-0.243591 5.417053,-3.874939 9.240753,-0.160721l1.210663,33.018677l-11.407654,0l0.956238,-32.857956z"/>
   <path fill="#0071bc" id="path411" d="m275.977356,162.584549c0,0 7.313538,-3.633026 13.193359,0.363724l0.09549,2.361694c0,0 -6.883484,-3.329391 -12.667145,0.48468l-0.621704,-3.210098z"/>
   <polygon fill="#0071bc" id="polygon413" points="275.2608375081327,200.06267796191878 290.46088741812855,200.1844666119223 290.46088741812855,203.39201253748342 275.3088995065773,203.091722115214 275.2127469353727,200.2453757638841 275.2608375081327,200.06267796191878 "/>
   <path fill="#0071bc" id="path415" d="m276.711273,206.118286c0.064087,-0.241928 6.691833,-4.279297 11.981354,0.160706l1.083099,26.641617l2.102814,0.484711l-0.126831,4.03566l-2.167633,0.887329c0,0 -5.034424,-4.52034 -12.93689,-0.080383l-2.295166,-1.452377l0.064728,-3.067108l2.16629,0.080383l0.128235,-27.690536z"/>
   <path fill="#0071bc" id="path417" d="m276.328613,239.943909c0,0 7.711609,-4.439957 13.829773,0.160706l2.422028,60.708405c0,0 -9.941956,-13.643158 -12.044739,-14.612488c-2.103546,-0.968475 -6.437439,-1.532715 -6.564972,-1.532715c-0.126923,0 1.403015,-2.099487 1.403015,-2.099487l0.955597,-42.462067l0,-0.162354l-0.000702,0z"/>
   <path fill="#0071bc" id="path419" d="m249.067108,187.530197l-0.095474,-1.02858l1.626022,0c0,0 -0.144211,-3.148361 -0.096832,-3.390259c0.048111,-0.242798 2.964294,-3.452011 2.964294,-3.452011l0.238434,-4.842621l0.430008,0.059219l0.28717,4.96611c0,0 3.250076,1.816086 3.298172,5.933823c0.047363,4.116013 0,0.482971 0,0.482971l1.338226,0.182693l0.047394,0.725769c0.000671,0 -9.272171,0.120117 -10.037415,0.362885z"/>
   <path fill="#0071bc" id="path421" d="m250.500824,188.378601c0,0 5.067108,-1.333084 7.051117,0.029633l0.143585,6.448059l-7.312881,0.091385l0.118179,-6.569077z"/>
   <path fill="#0071bc" id="path423" d="m248.875458,195.583771c0,0 9.846436,-0.545578 10.229065,0.029602l0.024078,0.967667l-1.433807,1.303497l0.693207,25.640137l-8.555649,0.211472l0.525604,-23.885788l0.047363,-1.301819l-0.883453,-1.150375l-0.502823,-0.302002l-0.143585,-1.51239z"/>
   <path fill="#0071bc" id="path425" d="m248.326538,224.372253c0,0 11.806396,-0.453415 12.092194,0.031281l-0.119537,2.480942l-1.481812,0.423798l0.621033,22.825867l-9.917206,-0.029602l0.333893,-22.796265l-1.43306,-0.514313l-0.072128,-2.331238"/>
   <path fill="#0071bc" id="path427" d="m119.294487,255.101135c0.430046,0.121765 4.01403,-5.691864 6.069466,-5.086243c2.05542,0.604797 6.165619,5.69104 6.165619,5.69104c0,0 0.382629,5.933807 0,5.751068c-0.381958,-0.180145 -4.444778,-3.270111 -4.588318,-2.843811c-0.143585,0.42215 -1.529915,1.271362 -2.915535,1.635101c-1.385658,0.363708 -3.154594,3.633026 -3.154594,3.633026l0,8.255707l15.375671,-0.385712l-0.637756,-65.390274l-22.816071,0.322281l-16.060814,2.261047l0.892799,63.775452l21.25016,-0.532074l0.419373,-17.086609zm-13.893875,-34.047256c1.91185,-0.48468 3.058456,3.389389 3.951263,4.682785c0.892166,1.289948 0,6.458191 0,6.458191l-2.421364,-2.907211c0,0 -2.294495,-0.968597 -2.804703,-1.130981c-0.51017,-0.16243 -2.548927,-1.130051 -2.548927,-1.130051c0,0 1.911873,-5.490601 3.82373,-5.972733zm4.428741,40.82695c0,0 -0.76461,-1.996277 -1.864449,-2.783752c-1.099167,-0.788422 -2.29451,-0.243652 -3.536583,-0.910187c-1.242729,-0.664001 -2.34256,-2.601028 -2.34256,-2.601028c0,0 1.529877,-3.331116 3.345573,-4.54155c0,0 3.250763,1.755203 4.062782,4.359619c0.813362,2.603638 0.335236,6.476898 0.335236,6.476898zm8.827393,-35.661209c0.381966,-3.390259 6.627724,-6.942963 6.627724,-6.942963c4.333908,2.905624 6.118896,7.264404 6.118896,7.264404c0,0 0.25444,5.328964 -0.127548,5.167419c-0.38266,-0.162384 -1.784332,-3.230347 -4.589005,-2.745682c-2.804001,0.482986 -6.245743,6.135971 -6.245743,6.135971l-0.126884,8.397018l-1.656769,-0.324005c-0.000671,0.000793 -0.383301,-13.562744 -0.000671,-16.952164z"/>
   <path fill="#0071bc" id="path429" d="m139.942932,200.911087l0.573639,63.452377l2.58165,0.48468l1.433731,-58.608063l38.238495,-0.121796l0.765274,38.143845l1.433716,3.148331c0,0 0.190994,11.74585 -0.096176,12.593323c-0.287109,0.847565 1.243439,3.633087 1.243439,3.633087l0.765274,-0.120117l0.09549,-62.969391l-47.034531,0.363724z"/>
   <polygon fill="#0071bc" id="polygon431" points="138.60470289792283,268.7230532814465 138.50923611028702,272.47712095513634 146.44379486242542,272.71900798169554 146.63479987348546,268.96585957952993 138.60470289792283,268.7230532814465 "/>
   <polygon fill="#0071bc" id="polygon433" points="181.71865859659738,268.3593776048838 189.7494127814134,267.9964432763245 189.7494127814134,271.74962133241024 181.71865859659738,272.11415697265693 181.71865859659738,268.3593776048838 "/>
   <polygon fill="#0071bc" id="polygon435" points="192.52139282785356,268.7230532814465 195.00684392696712,268.6029549048908 195.10236786323367,271.9924276304937 192.52139282785356,272.11415697265693 192.52139282785356,268.7230532814465 "/>
   <polygon fill="#0071bc" id="polygon437" points="190.3230421623739,212.7778341079511 190.7050236101786,270.90377291441655 191.3741197787749,271.14477032337163 191.75677272299072,212.7778341079511 190.3230421623739,212.7778341079511 "/>
   <polygon fill="#0071bc" id="polygon439" points="217.75885679351632,207.3287335322584 224.06873712260858,195.5837646913551 231.14255177299492,195.94662488511403 231.14255177299492,210.96090876722428 217.75885679351632,207.3287335322584 "/>
   <polygon fill="#0071bc" id="polygon441" points="125.50750829145545,165.7937775415985 126.36828096752288,165.85468669356032 126.51119540582295,173.78644311706012 125.36395093105966,173.78644311706012 125.50750829145545,165.7937775415985 "/>
   <path fill="#0071bc" id="path443" d="m116.282112,191.828918l0.048073,-6.961533c0,0 9.417061,-11.080078 9.559975,-12.230484c0.142899,-1.150391 0.286461,0.060883 0.286461,0.060883c0,0 6.787338,6.537781 8.12558,9.263153c1.338898,2.726273 1.338898,2.726273 1.338898,2.726273l-0.096161,7.021591l-19.262825,0.120117z"/>
   <path fill="#0071bc" id="path445" d="m134.971985,196.370422l-0.04808,-1.514954l0.812683,0l-0.142899,-2.481796l-19.645462,0.059204c0,0 -1.720871,0.48468 -2.29451,1.393143l2.628395,2.965652l0.048073,8.962021l19.358994,-0.060898l-0.047409,-9.264847l-0.669785,-0.057526zm-6.548935,8.536545l-5.258118,0.060913c0,0 -0.047424,-4.722504 0,-5.510025c0.048088,-0.786636 2.389992,-3.391098 2.389992,-3.391098c1.960602,0.423798 2.629707,3.150055 2.629707,3.150055c0,0 -0.765259,-0.728317 -1.529877,-0.909332c-0.764595,-0.18187 -2.295166,1.452377 -2.295166,1.452377l0.144264,1.452347l4.062767,0.060898l-0.14357,3.633865z"/>
   <path fill="#0071bc" id="path447" d="m96.254692,197.670532l1.625366,-4.055115l1.171295,3.633026l-0.04808,-0.455078l5.592682,0.303665l0.142876,2.663651l2.916222,3.542511l0.118866,2.118073l1.075783,0.93808l0.047417,1.211304l-5.11454,1.393158l-6.930229,0.636078l0.215034,-11.081787c0,0 -0.765289,-0.573502 -0.812691,-0.847565z"/>
   <path fill="#0071bc" id="path449" d="m113.079445,192.617294c0,0 -1.545258,2.56131 -1.545258,2.804901c0,0.241928 0.016693,0.463531 0.016693,0.463531l0.796005,0.041458l-0.015358,11.542786l1.544579,0.080368l0.048065,-11.665436c0,0 0.637741,-0.221634 0.717216,-0.301987c0.080132,-0.081223 -1.54525,-2.945328 -1.561943,-2.965622z"/>
   <polygon fill="#0071bc" id="polygon451" points="231.14255177299492,212.17219727002885 232.0032815875893,270.78192495657277 228.1795952898101,270.90377291441655 228.94352961110417,214.4738159353983 229.51784477563342,213.01975078843043 231.14255177299492,212.17219727002885 "/>
   <path fill="#0071bc" id="path453" d="m227.605316,217.01564l0.287766,-3.02652l-12.714554,-1.211288l0.572983,58.8508l3.059753,0l-0.19165,-23.975418l8.985703,0.12178l-0.190338,-3.512863l-8.986328,-0.604858l-0.19101,-19.85939c0,0 3.632019,-4.117691 4.301178,-4.237808c0.669128,-0.121826 0.669128,-2.665344 0.669128,-2.665344l4.397369,0.120911z"/>
   <path fill="#0071bc" id="path455" d="m226.649033,254.191833c0,0 -6.499527,9.203949 -6.117599,17.315857l6.596375,0l-0.478775,-17.315857z"/>
   <path fill="#0071bc" id="path457" d="m197.684006,271.992432l12.044754,-0.7258l-0.09549,-10.414398c0,0 -4.397995,-2.543579 -5.544586,-2.907257c-1.147888,-0.362915 -6.215042,4.481384 -6.40535,5.935516c-0.190979,1.452332 0.000671,8.111938 0.000671,8.111938z"/>
   <path fill="#0071bc" id="path459" d="m196.058624,247.532257c-0.190308,0.362854 0.19165,7.749054 0.19165,7.749054c0,0 4.684464,-5.933807 6.404709,-5.933807c0,0 6.118851,3.270157 6.787308,5.207169l0.478149,-7.14505l-13.861816,0.122635z"/>
   <path fill="#0071bc" id="path461" d="m196.250275,224.645416c0,0 5.257431,-5.570038 6.691833,-5.811951c1.433746,-0.243622 5.927246,3.995895 6.309235,5.205475c0.382614,1.213028 0.478088,-7.386154 0.478088,-7.386154l-14.148285,-0.121811l0.669128,8.114441z"/>
   <rect fill="#0071bc" id="rect463" height="14.772339" width="1.338234" y="184.240593" x="227.319475"/>
   <rect fill="#0071bc" id="rect465" height="6.861728" width="0.956263" y="192.03109" x="223.112445"/>
   <path fill="#0071bc" id="path467" d="m223.654694,192.313614c0,0 -1.338913,-0.323975 -1.466415,-0.606491c-0.126892,-0.280823 1.498474,-2.058868 1.593948,-2.541824c0.09549,-0.48468 1.338913,2.259323 1.403,2.461456c0.06279,0.202164 -1.530533,0.686859 -1.530533,0.686859z"/>
   <path fill="#0071bc" id="path469" d="m227.924515,184.927444c0,0 -1.338287,-0.323929 -1.465836,-0.606461c-0.126862,-0.282547 1.497192,-2.057205 1.592697,-2.54187c0.096161,-0.48468 1.339539,2.259323 1.403,2.461472c0.063461,0.202179 -1.529861,0.686859 -1.529861,0.686859z"/>
   <path fill="#0071bc" id="path471" d="m230.060059,196.148819c0,0 -1.338898,-0.32399 -1.466431,-0.604828c-0.126938,-0.28421 1.498505,-2.060532 1.593964,-2.543549c0.095459,-0.484665 1.338226,2.259338 1.402328,2.461502c0.062805,0.202179 -1.529861,0.686874 -1.529861,0.686874z"/>
   <path fill="#0071bc" id="path473" d="m149.936295,346.827667l12.694534,-43.916016c-0.181641,0.344208 -7.345596,19.438141 -16.507553,43.916016l3.813019,0zm39.462555,-44.238342l-10.197021,0.64624l59.184128,43.592102l58.862946,0c-16.489563,-6.559723 -107.850052,-44.238342 -107.850052,-44.238342zm-54.299301,0.322327l-123.088831,43.916016l57.696985,0l76.608566,-42.946716l-11.216721,-0.969299z"/>
   <path fill="#0071bc" id="path475" d="m38.348682,268.344971c3.216705,-3.251526 5.994671,-7.195862 9.628738,-7.614532c2.726551,-0.312164 4.283829,-1.135162 5.253441,-1.840607l-0.536907,-13.456207c-6.118202,-4.602386 -13.829075,-0.162399 -13.829075,-0.162399l0,0.162399l-0.516197,22.911346z"/>
   <path fill="#0071bc" id="path477" d="m247.777603,282.892303c0.06012,0.30542 0.048126,0.027954 -0.017349,-0.570953c-0.014023,0.229218 -0.011368,0.426361 0.017349,0.570953zm-13.76564,-1.293335c0,0 -0.024033,-0.053253 -0.0681,-0.149719c-2.014694,5.131958 0.0681,0.149719 0.0681,0.149719zm-74.43959,19.69873l-0.061417,0c-0.144928,2.349823 0.061417,0 0.061417,0zm99.421951,-47.468765c-0.510834,-1.613922 -9.432404,-0.322281 -9.432404,-0.322281l-0.255768,18.730194l-169.207771,2.257629l-0.126877,-19.049881l1.465103,-1.211304l-0.062767,-2.180664l-1.784988,-0.241119l-0.637054,-21.475021l1.784309,-1.613937l-0.318527,-2.50206l-1.911873,-0.322327l-0.892143,-24.621643l1.656761,-1.778061l0.127548,-2.340515l-1.530548,0.243576c0,0 0.063431,-0.566696 0,-1.130066c-0.063454,-0.566742 0.063431,-0.406021 0,-0.808655c-0.063454,-0.402634 0.063431,-5.248627 0.063431,-5.248627l1.529892,-0.644577l-0.317856,-1.130096l-1.147255,-0.160675l-0.06411,-0.565063c-0.445404,-2.421738 -3.823715,-6.053085 -3.823715,-6.053085c-3.31353,2.742325 -3.760277,7.021606 -3.760277,7.021606l-1.338226,0.647095l0.191643,2.016556l1.465118,0.484695l0.191643,5.409348l-1.338898,0.322281l0.064117,1.615616l1.147232,2.261063l-0.446739,24.783218l-1.465118,-0.080353l-0.064095,2.663681l1.210693,1.049713l-0.254433,22.360641l-1.274796,0.082062l0.064117,1.774673l1.27478,1.615601l-0.191643,19.212372l0.669113,0.606445l1.223366,1.462585c2.173637,4.475464 3.780983,10.074249 3.208023,16.413269c0.253761,-0.491425 0.379967,-2.420044 0.252419,-3.547607c-0.126869,-1.130066 1.019699,-2.097748 1.275467,-2.583252c0.255096,-0.483002 -0.127556,-2.261017 -0.382629,-3.550995c-0.255104,-1.290802 -0.255104,-3.068848 -0.255104,-4.358765c0,-1.042999 0.99968,-2.088501 1.786995,-2.792267l1.310844,-0.093079c0.675125,0.822235 1.363617,2.56134 1.363617,2.56134l0.255089,2.097748l0.510185,3.228699l-0.381973,5.813721l1.274796,-1.454102l1.146584,-1.77713c0,0 -0.381973,-3.874115 -0.510185,-4.681091c-0.126877,-0.806976 0.255096,-3.550934 0.255096,-3.550934c0,0 1.275459,-2.099518 1.657417,-2.261047c0.382645,-0.160736 1.911858,-0.160736 2.548927,0c0.637741,0.160736 1.402336,3.067963 1.402336,3.067963l-0.127533,5.327362l-0.126877,6.620636l3.696823,-0.322296c0,0 0.126884,-2.262756 0.126884,-3.391937c0,-1.130981 0.127556,-3.874969 0.382637,-5.16748c0.254425,-1.289917 2.166954,-2.744019 2.677147,-2.583282c0.509514,0.162384 1.911194,2.261017 2.294502,1.938751c0.381966,-0.324005 1.656738,-2.099487 2.804672,0.160706c1.146576,2.259308 0.381973,4.520325 0.381973,4.520325l2.166954,0.162445c0,0 0.255081,-1.778046 1.911179,-3.715118c1.65744,-1.937866 2.932243,0.48465 2.932243,0.48465l1.02037,5.651367l-1.658127,8.880829l2.422722,4.357941l4.715874,-0.160736c0,0 -0.127556,-10.979431 0.126877,-13.562714c0.254425,-2.583344 1.019722,-6.942963 3.059097,-5.165741c2.039398,1.776306 1.78434,6.942017 1.78434,6.942017l0.382629,12.108673l24.600403,-1.453156l15.744263,0.162415c0.016037,-0.263123 0.036072,-0.580292 0.061447,-0.969391c0.255096,-3.874939 3.824387,-3.228699 3.824387,-3.228699c2.804031,0 3.568619,3.874115 3.568619,3.874115l25.493225,-1.613098l0,3.228699l16.06015,-0.968536c0,0 -0.765289,-4.19809 -0.255081,-13.886719c0.510834,-9.68692 4.84407,-2.583313 4.84407,-2.583313c0.764587,-6.458252 3.568634,-3.228699 3.568634,-3.228699c1.019699,-5.165771 9.943283,-0.323914 9.943283,-0.323914c2.835373,-9.279297 6.765961,-1.354248 7.32489,-0.149719c0.098114,-0.249542 0.202988,-0.516876 0.321854,-0.817993c2.548935,-6.45993 5.098511,-1.937927 5.353622,-3.552643c0.255753,-1.613922 5.354263,-1.937103 6.373291,-1.937103c0.777924,0 1.555923,5.261322 1.766937,7.17981c0.111526,-1.827087 1.518509,-6.031891 3.330917,-7.17981c2.040054,-1.291626 3.059784,6.781372 3.059784,6.781372l2.29451,-1.613007c0,0 1.019653,-6.137726 1.784271,-7.105377c0.765289,-0.967712 1.529877,-1.613098 1.529877,-1.613098c0,0 -0.25708,-16.146851 -0.766632,-17.761642z"/>
  </g>
  <g id="g479">
   <path fill="#0071bc" id="path481" d="m99.593994,211.640991c0,0 5.758011,1.225998 6.616013,-0.612c0.856995,-1.837997 -0.858002,-6.003998 -0.858002,-6.003998c0,0 0.48999,-4.654999 1.347992,-5.881012c0.85701,-1.225983 3.063004,-5.02298 2.572998,-8.085999c-0.48999,-3.062988 7.106003,-13.722992 6.738007,-16.050995l0.205002,-0.978989l0.897995,0.162994l0.082001,2.287003c0,0 1.307007,1.552002 1.470001,3.104004c0.164001,1.552994 0.735992,2.531982 0.817001,3.103989c0.082001,0.570999 -0.572006,8.331009 -0.572006,8.576004c0,0.243988 8.577011,10.699997 8.658005,11.434998c0.082001,0.735001 0.082001,1.145004 0.082001,1.145004c0,0 2.041992,0.570999 2.940002,0.162003c0.899002,-0.407013 2.123993,-1.225006 2.123993,-1.225006l-0.164001,-0.653c0,0 -2.367996,-0.24501 -3.021988,-0.653c-0.654007,-0.408997 -6.126007,-8.820999 -6.126007,-8.820999c0,0 -0.490005,-8.25 0.326004,-9.475998c0.817001,-1.225006 1.470993,-2.940002 1.388992,-3.593994c-0.082001,-0.653015 0.89801,-3.757004 1.143005,-3.920013c0.244995,-0.162994 8.25,-1.715988 8.903,-0.571991c0,0 -0.408997,13.967987 -0.326996,15.109985c0.082001,1.14502 0.48999,3.186005 0.48999,3.186005c0,0 -0.48999,16.173004 -0.817001,17.153015c-0.325989,0.97998 1.879013,-0.980011 2.042007,-0.081009c0.162994,0.897003 4.819,-1.389999 4.655991,-1.960999c-0.163986,-0.572006 -3.26799,-2.694992 -3.26799,-2.694992l0.082001,-11.681c0,0 3.266998,-6.371002 3.348999,-9.883011c0.082001,-3.513 2.531998,-4.737 2.531998,-4.737l2.613998,-5.800003l1.225006,-0.244995c0,0 2.613998,-4.328995 2.776993,-4.981995c0.16301,-0.653 4.166,-0.162994 5.554001,-1.225006c1.389008,-1.061996 6.453003,-2.613998 8.658005,-8.332001c2.205994,-5.716995 1.877991,-8.983994 2.940002,-11.108002c1.061996,-2.123993 2.858994,-5.880997 2.695999,-6.615997c-0.164001,-0.735001 6.125992,-5.145996 6.207993,-5.962997c0.082001,-0.817001 1.960007,-0.082001 2.369003,-0.735001c0.408997,-0.653 2.041992,-3.104004 2.041992,-3.348999c0,-0.244995 -2.204987,-3.431 -2.694992,-3.512001c-0.490005,-0.082001 -6.615997,2.042 -6.861008,2.53199c-0.244995,0.490005 -5.227997,0.326019 -6.207993,1.55101c-0.979996,1.225998 -2.042007,-1.143005 -2.042007,-1.143005l-1.714996,0.327011l0.980011,2.286987l1.061996,0.490005l-0.16301,1.470001c0,0 -1.388992,3.921005 -2.123993,8.985001c-0.735001,5.063995 -3.839005,10.373001 -7.270004,10.945007c-3.429993,0.571991 -5.472992,-3.268005 -6.453003,-4.166016c-0.979996,-0.897995 -0.570999,-2.287994 -0.570999,-2.287994c0,0 -3.756989,-5.716995 -3.92099,-5.716995c-0.164001,0 -0.24501,-1.143997 -0.24501,-1.143997l-1.552002,-0.24501l-0.244995,1.552002c0,0 -7.270004,1.55101 -9.065994,3.348999c-1.796997,1.797012 -6.615997,0.817001 -6.615997,0.817001l0.082001,-1.714996l-2.124008,-0.162994l-0.082001,0.815994l0.570999,1.388992l-1.388,0.490005c0,0 -4.410995,5.880997 -6.453003,9.475006c-2.041992,3.593994 -5.145996,8.085999 -5.145996,8.085999l-1.224991,3.348999l-0.653,13.231995c0,0 -0.24501,5.554001 -0.89801,6.779007c-0.653992,1.224991 -2.449997,4.246994 -2.449997,4.246994c0,0 0.326004,3.921005 0.080994,4.983002c-0.244995,1.061996 -1.79599,6.860001 -2.123993,7.350998c-0.324997,0.490997 -3.755997,4.656006 -3.878006,6.085999z"/>
   <path fill="#0071bc" id="path483" d="m15.342999,181.957993l37.245998,-42.145996l34.306,38.552994l-21.562996,0.979004c0,0 -26.465004,-2.287003 -32.671997,0.979996c-6.207001,3.267014 -17.317005,1.634003 -17.317005,1.634003z"/>
   <path fill="#0071bc" id="path485" d="m178.130005,174.033997c0,0 23.522995,1.960999 27.19899,-0.244995c3.67601,-2.205002 31.366013,-59.789009 31.366013,-59.789009l-58.565002,60.034004z"/>
   <polygon fill="#0071bc" id="polygon487" points="237.92001342773438,115.22499465942383 209.4949951171875,173.29999542236328 294.27801513671875,171.093994140625 237.92001342773438,115.22499465942383 "/>
   <polygon fill="#0071bc" id="polygon489" points="281.0459899902344,154.9209976196289 293.7879943847656,167.1739959716797 308.0010070800781,133.11299514770508 306.7760009765625,132.8679962158203 281.0459899902344,154.9209976196289 "/>
   <path fill="#0071bc" id="path491" d="m309.962006,133.602997c-0.490021,0.735001 -14.946991,36.755997 -14.946991,36.755997c0,0 39.940979,-0.979996 45.33197,-0.244995c5.391022,0.733994 8.086029,-0.490005 8.086029,-0.490005l3.185974,-0.244995l-41.656982,-35.776001z"/>
  </g>
 </g>
</svg>